<svg width="72" height="72" viewBox="0 0 72 72" fill="none" xmlns="http://www.w3.org/2000/svg">
<path d="M28.17 18.03C28.71 18.78 29.1 19.47 29.37 20.13C29.64 20.76 29.79 21.39 29.79 21.96C29.79 22.68 29.58 23.4 29.16 24.09C28.77 24.78 28.2 25.5 27.48 26.22L25.2 28.59C24.87 28.92 24.72 29.31 24.72 29.79C24.72 30.03 24.75 30.24 24.81 30.48C24.9 30.72 24.99 30.9 25.05 31.08C25.59 32.07 26.52 33.36 27.84 34.92C29.19 36.48 30.63 38.07 32.19 39.66C33.81 41.25 35.37 42.72 36.96 44.07C38.52 45.39 39.81 46.29 40.83 46.83C40.98 46.89 41.16 46.98 41.37 47.07C41.61 47.16 41.85 47.19 42.12 47.19C42.63 47.19 43.02 47.01 43.35 46.68L45.63 44.43C46.38 43.68 47.1 43.11 47.79 42.75C48.48 42.33 49.17 42.12 49.92 42.12C50.49 42.12 51.09 42.24 51.75 42.51C52.41 42.78 53.1 43.17 53.85 43.68L63.78 50.73C64.56 51.27 65.1 51.9 65.43 52.65C65.73 53.4 65.91 54.15 65.91 54.99C65.91 56.07 65.67 57.18 65.16 58.26C64.65 59.34 63.99 60.36 63.12 61.32C61.65 62.94 60.03 64.11 58.2 64.86C56.4 65.61 54.45 66 52.35 66C49.29 66 46.02 65.28 42.57 63.81C39.12 62.34 35.67 60.36 32.25 57.87C28.8 55.35 25.53 52.56 22.41 49.47C19.32 46.35 16.53 43.08 14.04 39.66C11.58 36.24 9.6 32.82 8.16 29.43C6.72 26.01 6 22.74 6 19.62C6 17.58 6.36 15.63 7.08 13.83C7.8 12 8.94 10.32 10.53 8.82C12.45 6.93 14.55 6 16.77 6C17.61 6 18.45 6.18 19.2 6.54C19.98 6.9 20.67 7.44 21.21 8.22" stroke="#3175D5" stroke-width="4" stroke-miterlimit="10" stroke-linecap="round" stroke-linejoin="round"/>
</svg>
