<svg width="72" height="72" viewBox="0 0 72 72" fill="none" xmlns="http://www.w3.org/2000/svg">
<path d="M66 27.0005V45.0005C66 52.5005 64.5 57.7505 61.14 61.1405L42 42.0005L65.19 18.8105C65.73 21.1805 66 23.8805 66 27.0005Z" stroke="#3175D5" stroke-width="4" stroke-linecap="round" stroke-linejoin="round"/>
<path d="M6 27C6 12 12 6 27 6H45C56.88 6 63.12 9.78001 65.19 18.81L18.81 65.19C9.77997 63.12 6 56.88 6 45V38.82" stroke="#3175D5" stroke-width="4" stroke-linecap="round" stroke-linejoin="round"/>
<path d="M61.1386 61.14C57.7486 64.5 52.4986 66 44.9986 66H26.9986C23.8786 66 21.1786 65.73 18.8086 65.19L41.9986 42L61.1386 61.14Z" stroke="#3175D5" stroke-width="4" stroke-linecap="round" stroke-linejoin="round"/>
<path d="M18.7208 23.9402C20.7608 15.1502 33.9608 15.1502 36.0008 23.9402C37.1708 29.1002 33.9308 33.4802 31.0808 36.1802C29.0108 38.1602 25.7408 38.1602 23.6408 36.1802C20.7908 33.4802 17.5208 29.1002 18.7208 23.9402Z" stroke="#3175D5" stroke-width="4"/>
<path d="M27.2824 26.0996H27.3093" stroke="#3175D5" stroke-width="4" stroke-linecap="round" stroke-linejoin="round"/>
</svg>
