<svg width="72" height="72" viewBox="0 0 72 72" fill="none" xmlns="http://www.w3.org/2000/svg">
<path d="M6 25.5C6 15 12 10.5 21 10.5H42" stroke="#3175D5" stroke-width="4" stroke-miterlimit="10" stroke-linecap="round" stroke-linejoin="round"/>
<path d="M66 31.5V46.5C66 57 60 61.5 51 61.5H21C12 61.5 6 57 6 46.5V38.94" stroke="#3175D5" stroke-width="4" stroke-miterlimit="10" stroke-linecap="round" stroke-linejoin="round"/>
<path d="M21 27L30.39 34.5C33.48 36.96 38.55 36.96 41.64 34.5L45.18 31.68" stroke="#3175D5" stroke-width="4" stroke-miterlimit="10" stroke-linecap="round" stroke-linejoin="round"/>
<path d="M58.5 24C62.6421 24 66 20.6421 66 16.5C66 12.3579 62.6421 9 58.5 9C54.3579 9 51 12.3579 51 16.5C51 20.6421 54.3579 24 58.5 24Z" stroke="#3175D5" stroke-width="4" stroke-miterlimit="10" stroke-linecap="round" stroke-linejoin="round"/>
</svg>
