<svg width="205" height="210" viewBox="0 0 205 210" fill="none" xmlns="http://www.w3.org/2000/svg">
<path opacity="0.12" d="M143.745 37.5894C161.066 47.5894 181.011 114.044 160.3 149.916C139.589 185.788 92.8229 190.632 56.951 169.921C26.1222 157.318 32.3866 101.468 44.4093 61.6442C65.12 25.7722 113.867 20.3394 143.745 37.5894Z" fill="#1C314E"/>
<path d="M181.799 107.001C181.799 127.001 134.22 177.501 92.7986 177.501C51.3773 177.501 23.7986 139.422 23.7986 98.001C19.2986 65.001 70.7986 42.501 111.299 33.001C152.72 33.001 181.799 72.501 181.799 107.001Z" fill="#1C314E"/>
<path d="M98.237 121.688L99.0264 122.302L99.0323 122.294L98.237 121.688ZM70.333 121.688L69.5377 122.294L69.5436 122.302L70.333 121.688ZM70.333 87.576L71.1253 88.1861L71.1292 88.1811L70.333 87.576ZM98.237 87.576L97.4408 88.1811L97.4447 88.1861L98.237 87.576ZM97.4477 121.074C94.3771 125.022 90.0361 127.024 84.285 127.024V129.024C90.5659 129.024 95.5263 126.802 99.0264 122.302L97.4477 121.074ZM84.285 127.024C78.5339 127.024 74.1929 125.022 71.1224 121.074L69.5436 122.302C73.0437 126.802 78.0041 129.024 84.285 129.024V127.024ZM71.1283 121.082C68.0115 116.994 66.405 111.531 66.405 104.6H64.405C64.405 111.834 66.0838 117.764 69.5377 122.294L71.1283 121.082ZM66.405 104.6C66.405 97.6684 68.0117 92.2297 71.1253 88.1861L69.5407 86.9659C66.0836 91.4556 64.405 97.3663 64.405 104.6H66.405ZM71.1292 88.1811C74.1562 84.1981 78.4922 82.176 84.285 82.176V80.176C77.9604 80.176 72.9951 82.4205 69.5368 86.9709L71.1292 88.1811ZM84.285 82.176C90.0778 82.176 94.4138 84.1981 97.4408 88.1811L99.0332 86.9709C95.5749 82.4205 90.6096 80.176 84.285 80.176V82.176ZM97.4447 88.1861C100.558 92.2297 102.165 97.6684 102.165 104.6H104.165C104.165 97.3663 102.486 91.4556 99.0293 86.9659L97.4447 88.1861ZM102.165 104.6C102.165 111.531 100.559 116.994 97.4418 121.082L99.0323 122.294C102.486 117.764 104.165 111.834 104.165 104.6H102.165ZM84.285 92.592C83.1159 92.592 82.0453 92.8583 81.1083 93.4238C80.173 93.9883 79.4257 94.8175 78.8496 95.8605C77.7142 97.9163 77.205 100.871 77.205 104.6H79.205C79.205 100.99 79.7091 98.4411 80.6004 96.8275C81.0376 96.0358 81.557 95.4891 82.1417 95.1362C82.7247 94.7843 83.4275 94.592 84.285 94.592V92.592ZM77.205 104.6C77.205 108.329 77.7142 111.284 78.8496 113.339C79.4257 114.382 80.173 115.212 81.1083 115.776C82.0453 116.342 83.1159 116.608 84.285 116.608V114.608C83.4275 114.608 82.7247 114.416 82.1417 114.064C81.557 113.711 81.0376 113.164 80.6004 112.373C79.7091 110.759 79.205 108.21 79.205 104.6H77.205ZM84.285 116.608C85.4542 116.608 86.5247 116.342 87.4617 115.776C88.397 115.212 89.1443 114.382 89.7204 113.339C90.8558 111.284 91.365 108.329 91.365 104.6H89.365C89.365 108.21 88.8609 110.759 87.9696 112.373C87.5324 113.164 87.013 113.711 86.4283 114.064C85.8453 114.416 85.1425 114.608 84.285 114.608V116.608ZM91.365 104.6C91.365 100.871 90.8558 97.9163 89.7204 95.8605C89.1443 94.8175 88.397 93.9883 87.4617 93.4238C86.5247 92.8583 85.4542 92.592 84.285 92.592V94.592C85.1425 94.592 85.8453 94.7843 86.4283 95.1362C87.013 95.4891 87.5324 96.0358 87.9696 96.8275C88.8609 98.4411 89.365 100.99 89.365 104.6H91.365ZM137.062 108.952H136.062V109.952H137.062V108.952ZM141.543 108.952H142.543V107.952H141.543V108.952ZM141.543 120.472V121.472H142.543V120.472H141.543ZM137.062 120.472V119.472H136.062V120.472H137.062ZM137.062 127V128H138.062V127H137.062ZM124.519 127H123.519V128H124.519V127ZM124.519 120.472H125.519V119.472H124.519V120.472ZM105.702 120.472H104.702V121.472H105.702V120.472ZM105.702 108.952L104.795 108.533L104.702 108.732V108.952H105.702ZM118.055 82.2V81.2H117.415L117.147 81.7808L118.055 82.2ZM132.583 82.2L133.488 82.6245L134.156 81.2H132.583V82.2ZM120.039 108.952L119.133 108.527L118.465 109.952H120.039V108.952ZM124.519 108.952V109.952H125.519V108.952H124.519ZM124.519 102.68V101.68H123.519V102.68H124.519ZM137.062 102.68H138.062V101.68H137.062V102.68ZM137.062 109.952H141.543V107.952H137.062V109.952ZM140.543 108.952V120.472H142.543V108.952H140.543ZM141.543 119.472H137.062V121.472H141.543V119.472ZM136.062 120.472V127H138.062V120.472H136.062ZM137.062 126H124.519V128H137.062V126ZM125.519 127V120.472H123.519V127H125.519ZM124.519 119.472H105.702V121.472H124.519V119.472ZM106.702 120.472V108.952H104.702V120.472H106.702ZM106.61 109.371L118.962 82.6192L117.147 81.7808L104.795 108.533L106.61 109.371ZM118.055 83.2H132.583V81.2H118.055V83.2ZM131.677 81.7755L119.133 108.527L120.944 109.377L133.488 82.6245L131.677 81.7755ZM120.039 109.952H124.519V107.952H120.039V109.952ZM125.519 108.952V102.68H123.519V108.952H125.519ZM124.519 103.68H137.062V101.68H124.519V103.68ZM136.062 102.68V108.952H138.062V102.68H136.062Z" fill="white"/>
</svg>
