<svg width="205" height="210" viewBox="0 0 205 210" fill="none" xmlns="http://www.w3.org/2000/svg">
<path opacity="0.12" d="M143.745 37.5894C161.066 47.5894 181.011 114.044 160.3 149.916C139.589 185.788 92.8229 190.632 56.951 169.921C26.1222 157.318 32.3866 101.468 44.4093 61.6442C65.12 25.7722 113.867 20.3394 143.745 37.5894Z" fill="#1C314E"/>
<path d="M181.799 107.001C181.799 127.001 134.22 177.501 92.7986 177.501C51.3773 177.501 23.7986 139.422 23.7986 98.001C19.2986 65.001 70.7986 42.501 111.299 33.001C152.72 33.001 181.799 72.501 181.799 107.001Z" fill="#1C314E"/>
<path d="M95.2995 121.688L96.0889 122.302L96.0948 122.294L95.2995 121.688ZM67.3955 121.688L66.6002 122.294L66.6061 122.302L67.3955 121.688ZM67.3955 87.576L68.1878 88.1861L68.1917 88.1811L67.3955 87.576ZM95.2995 87.576L94.5033 88.1811L94.5072 88.1861L95.2995 87.576ZM94.5102 121.074C91.4396 125.022 87.0986 127.024 81.3475 127.024V129.024C87.6284 129.024 92.5888 126.802 96.0889 122.302L94.5102 121.074ZM81.3475 127.024C75.5964 127.024 71.2554 125.022 68.1849 121.074L66.6061 122.302C70.1062 126.802 75.0666 129.024 81.3475 129.024V127.024ZM68.1908 121.082C65.074 116.994 63.4675 111.531 63.4675 104.6H61.4675C61.4675 111.834 63.1463 117.764 66.6002 122.294L68.1908 121.082ZM63.4675 104.6C63.4675 97.6684 65.0742 92.2297 68.1878 88.1861L66.6032 86.9659C63.1461 91.4556 61.4675 97.3663 61.4675 104.6H63.4675ZM68.1917 88.1811C71.2187 84.1981 75.5547 82.176 81.3475 82.176V80.176C75.0229 80.176 70.0576 82.4205 66.5993 86.9709L68.1917 88.1811ZM81.3475 82.176C87.1403 82.176 91.4763 84.1981 94.5033 88.1811L96.0957 86.9709C92.6374 82.4205 87.6721 80.176 81.3475 80.176V82.176ZM94.5072 88.1861C97.6208 92.2297 99.2275 97.6684 99.2275 104.6H101.228C101.228 97.3663 99.5489 91.4556 96.0918 86.9659L94.5072 88.1861ZM99.2275 104.6C99.2275 111.531 97.621 116.994 94.5043 121.082L96.0948 122.294C99.5487 117.764 101.228 111.834 101.228 104.6H99.2275ZM81.3475 92.592C80.1784 92.592 79.1078 92.8583 78.1708 93.4238C77.2355 93.9883 76.4882 94.8175 75.9121 95.8605C74.7767 97.9163 74.2675 100.871 74.2675 104.6H76.2675C76.2675 100.99 76.7716 98.4411 77.6629 96.8275C78.1001 96.0358 78.6195 95.4891 79.2042 95.1362C79.7872 94.7843 80.49 94.592 81.3475 94.592V92.592ZM74.2675 104.6C74.2675 108.329 74.7767 111.284 75.9121 113.339C76.4882 114.382 77.2355 115.212 78.1708 115.776C79.1078 116.342 80.1784 116.608 81.3475 116.608V114.608C80.49 114.608 79.7872 114.416 79.2042 114.064C78.6195 113.711 78.1001 113.164 77.6629 112.373C76.7716 110.759 76.2675 108.21 76.2675 104.6H74.2675ZM81.3475 116.608C82.5167 116.608 83.5872 116.342 84.5242 115.776C85.4595 115.212 86.2068 114.382 86.7829 113.339C87.9183 111.284 88.4275 108.329 88.4275 104.6H86.4275C86.4275 108.21 85.9234 110.759 85.0321 112.373C84.5949 113.164 84.0755 113.711 83.4908 114.064C82.9078 114.416 82.205 114.608 81.3475 114.608V116.608ZM88.4275 104.6C88.4275 100.871 87.9183 97.9163 86.7829 95.8605C86.2068 94.8175 85.4595 93.9883 84.5242 93.4238C83.5872 92.8583 82.5167 92.592 81.3475 92.592V94.592C82.205 94.592 82.9078 94.7843 83.4908 95.1362C84.0755 95.4891 84.5949 96.0358 85.0321 96.8275C85.9234 98.4411 86.4275 100.99 86.4275 104.6H88.4275ZM134.539 127V128H135.539V127H134.539ZM102.155 127H101.155V128H102.155V127ZM102.155 117.656L101.42 116.978L101.155 117.265V117.656H102.155ZM116.747 101.848L117.482 102.526L117.487 102.521L117.492 102.515L116.747 101.848ZM117.835 100.632L117.128 99.9249L117.108 99.9445L117.09 99.9652L117.835 100.632ZM119.627 98.712L118.868 98.0612L118.86 98.0699L118.853 98.0788L119.627 98.712ZM120.011 94.296L120.687 93.5588L120.687 93.5588L120.011 94.296ZM112.459 98.136L111.98 99.0139L112.986 99.5627L113.394 98.4914L112.459 98.136ZM101.195 91.992L100.275 91.5994L99.9187 92.4349L100.716 92.8699L101.195 91.992ZM107.723 83.992L108.263 84.8336L108.266 84.8316L107.723 83.992ZM128.843 84.952L128.22 85.7339L128.843 84.952ZM131.787 102.296L130.933 101.776L130.929 101.783L130.925 101.79L131.787 102.296ZM126.283 109.528L127.027 110.196L127.033 110.189L126.283 109.528ZM121.739 114.584L120.995 113.916L119.496 115.584H121.739V114.584ZM134.539 114.584H135.539V113.584H134.539V114.584ZM134.539 126H102.155V128H134.539V126ZM103.155 127V117.656H101.155V127H103.155ZM102.89 118.334L117.482 102.526L116.012 101.17L101.42 116.978L102.89 118.334ZM117.492 102.515L118.58 101.299L117.09 99.9652L116.002 101.181L117.492 102.515ZM118.542 101.339C119.36 100.522 119.985 99.8537 120.401 99.3452L118.853 98.0788C118.501 98.5089 117.932 99.121 117.128 99.9249L118.542 101.339ZM120.386 99.3628C121.24 98.3663 121.779 97.2897 121.779 96.152H119.779C119.779 96.6356 119.55 97.2657 118.868 98.0612L120.386 99.3628ZM121.779 96.152C121.779 95.1367 121.428 94.2388 120.687 93.5588L119.335 95.0331C119.618 95.2919 119.779 95.6313 119.779 96.152H121.779ZM120.687 93.5588C119.926 92.8617 118.899 92.592 117.771 92.592V94.592C118.605 94.592 119.072 94.7916 119.335 95.0332L120.687 93.5588ZM117.771 92.592C116.345 92.592 115.072 93.0516 114.001 93.9681C112.948 94.8685 112.138 96.1674 111.524 97.7806L113.394 98.4914C113.932 97.0753 114.583 96.1021 115.301 95.4879C116 94.8898 116.808 94.592 117.771 94.592V92.592ZM112.938 97.2581L101.674 91.1141L100.716 92.8699L111.98 99.0139L112.938 97.2581ZM102.115 92.3846C103.539 89.0473 105.593 86.5473 108.263 84.8336L107.183 83.1504C104.136 85.1061 101.837 87.9394 100.275 91.5994L102.115 92.3846ZM108.266 84.8316C110.996 83.0655 114.09 82.176 117.579 82.176V80.176C113.729 80.176 110.253 81.1638 107.18 83.1524L108.266 84.8316ZM117.579 82.176C121.723 82.176 125.254 83.3691 128.22 85.7339L129.466 84.1701C126.118 81.5002 122.139 80.176 117.579 80.176V82.176ZM128.22 85.7339C131.118 88.0452 132.579 91.1812 132.579 95.256H134.579C134.579 90.6268 132.882 86.8935 129.466 84.1701L128.22 85.7339ZM132.579 95.256C132.579 97.8381 132.015 99.9974 130.933 101.776L132.641 102.816C133.948 100.669 134.579 98.1352 134.579 95.256H132.579ZM130.925 101.79C129.819 103.673 128.032 106.029 125.533 108.867L127.033 110.189C129.569 107.31 131.451 104.844 132.649 102.802L130.925 101.79ZM125.539 108.86L120.995 113.916L122.483 115.252L127.027 110.196L125.539 108.86ZM121.739 115.584H134.539V113.584H121.739V115.584ZM133.539 114.584V127H135.539V114.584H133.539Z" fill="white"/>
</svg>
