<svg width="205" height="210" viewBox="0 0 205 210" fill="none" xmlns="http://www.w3.org/2000/svg">
<path opacity="0.12" d="M143.745 37.5894C161.066 47.5894 181.011 114.044 160.3 149.916C139.589 185.788 92.8229 190.632 56.951 169.921C26.1222 157.318 32.3866 101.468 44.4093 61.6442C65.12 25.7722 113.867 20.3394 143.745 37.5894Z" fill="#1C314E"/>
<path d="M181.799 107C181.799 127 134.22 177.5 92.7987 177.5C51.3773 177.5 23.7987 139.421 23.7987 98C19.2987 65 70.7987 42.5 111.299 33C152.72 33 181.799 72.5 181.799 107Z" fill="#1C314E"/>
<path d="M96.362 123.688L97.1514 124.302L97.1573 124.294L96.362 123.688ZM68.458 123.688L67.6627 124.294L67.6686 124.302L68.458 123.688ZM68.458 89.576L69.2503 90.1861L69.2542 90.1811L68.458 89.576ZM96.362 89.576L95.5658 90.1811L95.5697 90.1861L96.362 89.576ZM95.5727 123.074C92.5021 127.022 88.1611 129.024 82.41 129.024V131.024C88.6909 131.024 93.6513 128.802 97.1514 124.302L95.5727 123.074ZM82.41 129.024C76.6589 129.024 72.3179 127.022 69.2474 123.074L67.6686 124.302C71.1687 128.802 76.1291 131.024 82.41 131.024V129.024ZM69.2533 123.082C66.1365 118.994 64.53 113.531 64.53 106.6H62.53C62.53 113.834 64.2088 119.764 67.6627 124.294L69.2533 123.082ZM64.53 106.6C64.53 99.6684 66.1367 94.2297 69.2503 90.1861L67.6657 88.9659C64.2086 93.4556 62.53 99.3663 62.53 106.6H64.53ZM69.2542 90.1811C72.2812 86.1981 76.6172 84.176 82.41 84.176V82.176C76.0854 82.176 71.1201 84.4205 67.6618 88.9709L69.2542 90.1811ZM82.41 84.176C88.2028 84.176 92.5388 86.1981 95.5658 90.1811L97.1582 88.9709C93.6999 84.4205 88.7346 82.176 82.41 82.176V84.176ZM95.5697 90.1861C98.6833 94.2297 100.29 99.6684 100.29 106.6H102.29C102.29 99.3663 100.611 93.4556 97.1543 88.9659L95.5697 90.1861ZM100.29 106.6C100.29 113.531 98.6835 118.994 95.5668 123.082L97.1573 124.294C100.611 119.764 102.29 113.834 102.29 106.6H100.29ZM82.41 94.592C81.2409 94.592 80.1703 94.8583 79.2333 95.4238C78.298 95.9883 77.5507 96.8175 76.9746 97.8605C75.8392 99.9163 75.33 102.871 75.33 106.6H77.33C77.33 102.99 77.8341 100.441 78.7254 98.8275C79.1626 98.0358 79.682 97.4891 80.2667 97.1362C80.8497 96.7843 81.5525 96.592 82.41 96.592V94.592ZM75.33 106.6C75.33 110.329 75.8392 113.284 76.9746 115.339C77.5507 116.382 78.298 117.212 79.2333 117.776C80.1703 118.342 81.2409 118.608 82.41 118.608V116.608C81.5525 116.608 80.8497 116.416 80.2667 116.064C79.682 115.711 79.1626 115.164 78.7254 114.373C77.8341 112.759 77.33 110.21 77.33 106.6H75.33ZM82.41 118.608C83.5792 118.608 84.6497 118.342 85.5867 117.776C86.522 117.212 87.2693 116.382 87.8454 115.339C88.9808 113.284 89.49 110.329 89.49 106.6H87.49C87.49 110.21 86.9859 112.759 86.0946 114.373C85.6574 115.164 85.138 115.711 84.5533 116.064C83.9703 116.416 83.2675 116.608 82.41 116.608V118.608ZM89.49 106.6C89.49 102.871 88.9808 99.9163 87.8454 97.8605C87.2693 96.8175 86.522 95.9883 85.5867 95.4238C84.6497 94.8583 83.5792 94.592 82.41 94.592V96.592C83.2675 96.592 83.9703 96.7843 84.5533 97.1362C85.138 97.4891 85.6574 98.0358 86.0946 98.8275C86.9859 100.441 87.49 102.99 87.49 106.6H89.49ZM118.755 99.88L117.758 99.8018L117.673 100.88H118.755V99.88ZM132.451 103.656L133.106 102.901L132.451 103.656ZM132.066 125.992L132.72 126.749L132.726 126.743L132.066 125.992ZM109.283 127.336L108.759 128.188L108.768 128.193L109.283 127.336ZM102.882 119.4L102.385 118.533L101.651 118.954L101.945 119.747L102.882 119.4ZM114.146 112.936L115.108 112.66L114.755 111.434L113.649 112.069L114.146 112.936ZM122.979 116.776L123.609 117.552L123.623 117.541L123.637 117.529L122.979 116.776ZM105.443 111.208L104.445 111.139L104.371 112.208H105.443V111.208ZM107.299 84.2V83.2H106.365L106.301 84.1314L107.299 84.2ZM134.243 84.2H135.243V83.2H134.243V84.2ZM134.243 96.616V97.616H135.243V96.616H134.243ZM119.01 96.616V95.616H118.086L118.014 96.5378L119.01 96.616ZM118.755 100.88H121.443V98.88H118.755V100.88ZM121.443 100.88C125.679 100.88 129.104 102.076 131.795 104.411L133.106 102.901C129.995 100.201 126.081 98.88 121.443 98.88V100.88ZM131.795 104.411C134.432 106.699 135.803 109.98 135.803 114.408H137.803C137.803 109.534 136.272 105.648 133.106 102.901L131.795 104.411ZM135.803 114.408C135.803 119.126 134.309 122.691 131.407 125.241L132.726 126.743C136.139 123.746 137.803 119.589 137.803 114.408H135.803ZM131.413 125.235C128.511 127.74 124.787 129.024 120.162 129.024V131.024C125.18 131.024 129.393 129.62 132.72 126.749L131.413 125.235ZM120.162 129.024C116.036 129.024 112.597 128.158 109.797 126.479L108.768 128.193C111.942 130.098 115.755 131.024 120.162 131.024V129.024ZM109.806 126.484C107.02 124.773 105.027 122.31 103.82 119.053L101.945 119.747C103.298 123.402 105.571 126.23 108.759 128.188L109.806 126.484ZM103.38 120.267L114.644 113.803L113.649 112.069L102.385 118.533L103.38 120.267ZM113.185 113.212C113.676 114.917 114.498 116.289 115.709 117.23C116.924 118.173 118.435 118.608 120.162 118.608V116.608C118.776 116.608 117.726 116.264 116.936 115.65C116.142 115.033 115.513 114.07 115.108 112.66L113.185 113.212ZM120.162 118.608C121.505 118.608 122.694 118.296 123.609 117.552L122.348 116C121.898 116.365 121.209 116.608 120.162 116.608V118.608ZM123.637 117.529C124.566 116.716 125.003 115.615 125.003 114.344H123.003C123.003 115.121 122.756 115.642 122.32 116.023L123.637 117.529ZM125.003 114.344C125.003 113.085 124.607 111.979 123.675 111.217C122.782 110.488 121.553 110.208 120.162 110.208V112.208C121.332 112.208 122.023 112.451 122.41 112.767C122.758 113.051 123.003 113.512 123.003 114.344H125.003ZM120.162 110.208H105.443V112.208H120.162V110.208ZM106.44 111.277L108.296 84.2686L106.301 84.1314L104.445 111.139L106.44 111.277ZM107.299 85.2H134.243V83.2H107.299V85.2ZM133.243 84.2V96.616H135.243V84.2H133.243ZM134.243 95.616H119.01V97.616H134.243V95.616ZM118.014 96.5378L117.758 99.8018L119.751 99.9582L120.007 96.6942L118.014 96.5378Z" fill="white"/>
</svg>
