<svg width="205" height="210" viewBox="0 0 205 210" fill="none" xmlns="http://www.w3.org/2000/svg">
<path opacity="0.12" d="M143.223 37.0894C160.543 47.0894 180.488 113.544 159.778 149.416C139.067 185.288 92.3005 190.132 56.4285 169.421C25.5997 156.818 31.8641 100.968 43.8869 61.1442C64.5976 25.2722 113.345 19.8394 143.223 37.0894Z" fill="#1C314E"/>
<path d="M181.276 106.501C181.276 126.501 133.697 177.001 92.2761 177.001C50.8548 177.001 23.2761 138.922 23.2761 97.501C18.7761 64.501 70.2761 42.001 110.776 32.501C152.197 32.501 181.276 72.001 181.276 106.501Z" fill="#1C314E"/>
<path d="M97.112 122.688L97.9014 123.302L97.9073 123.294L97.112 122.688ZM69.208 122.688L68.4127 123.294L68.4186 123.302L69.208 122.688ZM69.208 88.576L70.0003 89.1861L70.0042 89.1811L69.208 88.576ZM97.112 88.576L96.3158 89.1811L96.3197 89.1861L97.112 88.576ZM96.3227 122.074C93.2521 126.022 88.9111 128.024 83.16 128.024V130.024C89.4409 130.024 94.4013 127.802 97.9014 123.302L96.3227 122.074ZM83.16 128.024C77.4089 128.024 73.0679 126.022 69.9974 122.074L68.4186 123.302C71.9187 127.802 76.8791 130.024 83.16 130.024V128.024ZM70.0033 122.082C66.8865 117.994 65.28 112.531 65.28 105.6H63.28C63.28 112.834 64.9588 118.764 68.4127 123.294L70.0033 122.082ZM65.28 105.6C65.28 98.6684 66.8867 93.2297 70.0003 89.1861L68.4157 87.9659C64.9586 92.4556 63.28 98.3663 63.28 105.6H65.28ZM70.0042 89.1811C73.0312 85.1981 77.3672 83.176 83.16 83.176V81.176C76.8354 81.176 71.8701 83.4205 68.4118 87.9709L70.0042 89.1811ZM83.16 83.176C88.9528 83.176 93.2888 85.1981 96.3158 89.1811L97.9082 87.9709C94.4499 83.4205 89.4846 81.176 83.16 81.176V83.176ZM96.3197 89.1861C99.4333 93.2297 101.04 98.6684 101.04 105.6H103.04C103.04 98.3663 101.361 92.4556 97.9043 87.9659L96.3197 89.1861ZM101.04 105.6C101.04 112.531 99.4335 117.994 96.3168 122.082L97.9073 123.294C101.361 118.764 103.04 112.834 103.04 105.6H101.04ZM83.16 93.592C81.9909 93.592 80.9203 93.8583 79.9833 94.4238C79.048 94.9883 78.3007 95.8175 77.7246 96.8605C76.5892 98.9163 76.08 101.871 76.08 105.6H78.08C78.08 101.99 78.5841 99.4411 79.4754 97.8275C79.9126 97.0358 80.432 96.4891 81.0167 96.1362C81.5997 95.7843 82.3025 95.592 83.16 95.592V93.592ZM76.08 105.6C76.08 109.329 76.5892 112.284 77.7246 114.339C78.3007 115.382 79.048 116.212 79.9833 116.776C80.9203 117.342 81.9909 117.608 83.16 117.608V115.608C82.3025 115.608 81.5997 115.416 81.0167 115.064C80.432 114.711 79.9126 114.164 79.4754 113.373C78.5841 111.759 78.08 109.21 78.08 105.6H76.08ZM83.16 117.608C84.3292 117.608 85.3997 117.342 86.3367 116.776C87.272 116.212 88.0193 115.382 88.5954 114.339C89.7308 112.284 90.24 109.329 90.24 105.6H88.24C88.24 109.21 87.7359 111.759 86.8446 113.373C86.4074 114.164 85.888 114.711 85.3033 115.064C84.7203 115.416 84.0175 115.608 83.16 115.608V117.608ZM90.24 105.6C90.24 101.871 89.7308 98.9163 88.5954 96.8605C88.0193 95.8175 87.272 94.9883 86.3367 94.4238C85.3997 93.8583 84.3292 93.592 83.16 93.592V95.592C84.0175 95.592 84.7203 95.7843 85.3033 96.1362C85.888 96.4891 86.4074 97.0358 86.8446 97.8275C87.7359 99.4411 88.24 101.99 88.24 105.6H90.24ZM102.688 87.744L102.348 86.8032L101.478 87.1171L101.723 88.0096L102.688 87.744ZM115.296 83.2V82.2H115.121L114.956 82.2592L115.296 83.2ZM126.175 83.2H127.175V82.2H126.175V83.2ZM126.175 128V129H127.175V128H126.175ZM113.375 128H112.375V129H113.375V128ZM113.375 96.576H114.375V95.308L113.142 95.6035L113.375 96.576ZM105.632 98.432L104.667 98.6976L104.924 99.6298L105.865 99.4045L105.632 98.432ZM103.027 88.6848L115.635 84.1408L114.956 82.2592L102.348 86.8032L103.027 88.6848ZM115.296 84.2H126.175V82.2H115.296V84.2ZM125.175 83.2V128H127.175V83.2H125.175ZM126.175 127H113.375V129H126.175V127ZM114.375 128V96.576H112.375V128H114.375ZM113.142 95.6035L105.398 97.4595L105.865 99.4045L113.609 97.5485L113.142 95.6035ZM106.596 98.1664L103.652 87.4784L101.723 88.0096L104.667 98.6976L106.596 98.1664Z" fill="white"/>
</svg>
