<svg width="205" height="210" viewBox="0 0 205 210" fill="none" xmlns="http://www.w3.org/2000/svg">
<path opacity="0.12" d="M143.745 37.5894C161.066 47.5894 181.011 114.044 160.3 149.916C139.589 185.788 92.8229 190.632 56.951 169.921C26.1222 157.318 32.3866 101.468 44.4093 61.6442C65.12 25.7722 113.867 20.3394 143.745 37.5894Z" fill="#1C314E"/>
<path d="M181.799 107.001C181.799 127.001 134.22 177.501 92.7986 177.501C51.3773 177.501 23.7986 139.422 23.7986 98.001C19.2986 65.001 70.7986 42.501 111.299 33.001C152.72 33.001 181.799 72.501 181.799 107.001Z" fill="#1C314E"/>
<path d="M100.143 117.688L100.933 118.302L100.939 118.294L100.143 117.688ZM72.2393 117.688L71.444 118.294L71.4499 118.302L72.2393 117.688ZM72.2393 83.576L73.0316 84.1861L73.0354 84.1811L72.2393 83.576ZM100.143 83.576L99.3471 84.1811L99.3509 84.1861L100.143 83.576ZM99.3539 117.074C96.2833 121.022 91.9423 123.024 86.1913 123.024V125.024C92.4722 125.024 97.4325 122.802 100.933 118.302L99.3539 117.074ZM86.1913 123.024C80.4402 123.024 76.0992 121.022 73.0286 117.074L71.4499 118.302C74.95 122.802 79.9103 125.024 86.1913 125.024V123.024ZM73.0345 117.082C69.9177 112.994 68.3113 107.531 68.3113 100.6H66.3113C66.3113 107.834 67.9901 113.764 71.444 118.294L73.0345 117.082ZM68.3113 100.6C68.3113 93.6684 69.918 88.2297 73.0316 84.1861L71.4469 82.9659C67.9899 87.4556 66.3113 93.3663 66.3113 100.6H68.3113ZM73.0354 84.1811C76.0625 80.1981 80.3985 78.176 86.1913 78.176V76.176C79.8667 76.176 74.9014 78.4205 71.4431 82.9709L73.0354 84.1811ZM86.1913 78.176C91.984 78.176 96.32 80.1981 99.3471 84.1811L100.939 82.9709C97.4811 78.4205 92.5158 76.176 86.1913 76.176V78.176ZM99.3509 84.1861C102.465 88.2297 104.071 93.6684 104.071 100.6H106.071C106.071 93.3663 104.393 87.4556 100.936 82.9659L99.3509 84.1861ZM104.071 100.6C104.071 107.531 102.465 112.994 99.348 117.082L100.939 118.294C104.392 113.764 106.071 107.834 106.071 100.6H104.071ZM86.1913 88.592C85.0221 88.592 83.9516 88.8583 83.0145 89.4238C82.0793 89.9883 81.332 90.8175 80.7559 91.8605C79.6204 93.9163 79.1113 96.8714 79.1113 100.6H81.1113C81.1113 96.99 81.6154 94.4411 82.5066 92.8275C82.9439 92.0358 83.4632 91.4891 84.048 91.1362C84.631 90.7843 85.3337 90.592 86.1913 90.592V88.592ZM79.1113 100.6C79.1113 104.329 79.6204 107.284 80.7559 109.339C81.332 110.382 82.0793 111.212 83.0145 111.776C83.9516 112.342 85.0221 112.608 86.1913 112.608V110.608C85.3337 110.608 84.631 110.416 84.048 110.064C83.4632 109.711 82.9439 109.164 82.5066 108.373C81.6154 106.759 81.1113 104.21 81.1113 100.6H79.1113ZM86.1913 112.608C87.3604 112.608 88.431 112.342 89.368 111.776C90.3032 111.212 91.0505 110.382 91.6266 109.339C92.7621 107.284 93.2713 104.329 93.2713 100.6H91.2713C91.2713 104.21 90.7671 106.759 89.8759 108.373C89.4386 109.164 88.9193 109.711 88.3345 110.064C87.7516 110.416 87.0488 110.608 86.1913 110.608V112.608ZM93.2713 100.6C93.2713 96.8714 92.7621 93.9163 91.6266 91.8605C91.0505 90.8175 90.3032 89.9883 89.368 89.4238C88.431 88.8583 87.3604 88.592 86.1913 88.592V90.592C87.0488 90.592 87.7516 90.7843 88.3345 91.1362C88.9193 91.4891 89.4386 92.0358 89.8759 92.8275C90.7671 94.4411 91.2713 96.99 91.2713 100.6H93.2713ZM136.262 88.056L137.027 88.6996L137.262 88.4206V88.056H136.262ZM129.158 96.504L128.392 95.8604L127.413 97.0247L128.87 97.4618L129.158 96.504ZM136.134 101.048L135.345 101.663L135.353 101.673L136.134 101.048ZM133.958 120.184L133.328 119.407L133.323 119.411L133.958 120.184ZM111.686 121.336L111.151 122.181L111.16 122.187L111.686 121.336ZM105.414 113.4L104.916 112.533L104.182 112.954L104.476 113.747L105.414 113.4ZM116.678 106.936L117.639 106.66L117.286 105.434L116.18 106.069L116.678 106.936ZM124.806 110.712L124.17 109.94L124.159 109.95L124.147 109.959L124.806 110.712ZM119.302 105.08L118.472 105.638L118.769 106.08H119.302V105.08ZM114.31 97.656L113.55 97.0063L113.056 97.5837L113.48 98.214L114.31 97.656ZM120.326 90.616L121.086 91.2656L122.496 89.616H120.326V90.616ZM106.822 90.616H105.822V91.616H106.822V90.616ZM106.822 78.2V77.2H105.822V78.2H106.822ZM136.262 78.2H137.262V77.2H136.262V78.2ZM135.496 87.4124L128.392 95.8604L129.923 97.1476L137.027 88.6996L135.496 87.4124ZM128.87 97.4618C131.69 98.3077 133.827 99.7172 135.345 101.663L136.922 100.433C135.112 98.1122 132.599 96.4923 129.445 95.5462L128.87 97.4618ZM135.353 101.673C136.898 103.604 137.694 105.999 137.694 108.92H139.694C139.694 105.612 138.783 102.758 136.915 100.423L135.353 101.673ZM137.694 108.92C137.694 113.64 136.2 117.078 133.328 119.407L134.588 120.961C138.03 118.17 139.694 114.098 139.694 108.92H137.694ZM133.323 119.411C130.42 121.797 126.691 123.024 122.054 123.024V125.024C127.059 125.024 131.266 123.691 134.593 120.957L133.323 119.411ZM122.054 123.024C118.196 123.024 114.929 122.164 112.211 120.485L111.16 122.187C114.246 124.092 117.891 125.024 122.054 125.024V123.024ZM112.22 120.491C109.518 118.782 107.561 116.319 106.351 113.053L104.476 113.747C105.826 117.393 108.051 120.22 111.151 122.181L112.22 120.491ZM105.911 114.267L117.175 107.803L116.18 106.069L104.916 112.533L105.911 114.267ZM115.717 107.212C116.199 108.89 116.952 110.251 118.038 111.195C119.14 112.153 120.503 112.608 122.054 112.608V110.608C120.917 110.608 120.04 110.285 119.35 109.685C118.644 109.072 118.052 108.097 117.639 106.66L115.717 107.212ZM122.054 112.608C123.381 112.608 124.554 112.261 125.464 111.465L124.147 109.959C123.692 110.358 123.031 110.608 122.054 110.608V112.608ZM125.441 111.484C126.42 110.678 126.894 109.572 126.894 108.28H124.894C124.894 109.036 124.642 109.551 124.17 109.94L125.441 111.484ZM126.894 108.28C126.894 107.006 126.503 105.886 125.574 105.112C124.68 104.367 123.448 104.08 122.054 104.08V106.08C123.22 106.08 123.908 106.327 124.294 106.648C124.645 106.941 124.894 107.42 124.894 108.28H126.894ZM122.054 104.08H119.302V106.08H122.054V104.08ZM120.132 104.522L115.14 97.098L113.48 98.214L118.472 105.638L120.132 104.522ZM115.07 98.3056L121.086 91.2656L119.566 89.9663L113.55 97.0063L115.07 98.3056ZM120.326 89.616H106.822V91.616H120.326V89.616ZM107.822 90.616V78.2H105.822V90.616H107.822ZM106.822 79.2H136.262V77.2H106.822V79.2ZM135.262 78.2V88.056H137.262V78.2H135.262Z" fill="white"/>
</svg>
