<svg width="20" height="12" viewBox="0 0 20 12" fill="none" xmlns="http://www.w3.org/2000/svg">
<path d="M0 6.00019C0 6.33648 0.316977 6.6144 0.728233 6.65838L0.842564 6.66445L17.6938 6.66445C18.1592 6.66445 18.5364 6.36705 18.5364 6.00019C18.5364 5.66391 18.2194 5.38599 17.8082 5.342L17.6938 5.33594L0.842564 5.33594C0.377229 5.33594 0 5.63333 0 6.00019Z" fill="white"/>
<path d="M12.8496 10.865C12.5633 11.1239 12.5623 11.5445 12.8474 11.8044C13.1066 12.0408 13.5131 12.063 13.8 11.8706L13.8822 11.8065L19.7846 6.47115C20.0457 6.23513 20.0694 5.86482 19.8558 5.60437L19.7846 5.52977L13.8822 0.193585C13.5959 -0.0652858 13.1326 -0.064415 12.8475 0.195529C12.5882 0.431843 12.5655 0.800915 12.7786 1.06056L12.8496 1.13493L18.231 6.00071L12.8496 10.865Z" fill="white"/>
</svg>
