<svg width="24" height="22" viewBox="0 0 24 22" fill="none" xmlns="http://www.w3.org/2000/svg">
<path fill-rule="evenodd" clip-rule="evenodd" d="M13.0024 4.34865C12.6839 4.64703 12.6839 5.12909 13.0046 5.42544L16.645 8.79787L16.729 8.866C17.0505 9.093 17.5093 9.06935 17.8013 8.79584C17.9606 8.64666 18.0403 8.45281 18.0403 8.25897C18.0403 8.0631 17.9606 7.86825 17.7992 7.71906L14.1599 4.34663L14.0758 4.27873C13.7542 4.05251 13.2944 4.07608 13.0024 4.34865ZM3.7156 10.2446C3.31232 10.2916 3 10.612 3 10.9998C3 11.42 3.36655 11.761 3.81818 11.761H18.2007L13.0047 16.5746L12.9312 16.6523C12.6862 16.95 12.7105 17.3778 13.0025 17.6513C13.3211 17.9487 13.8393 17.9497 14.1589 17.6534L20.7589 11.5387L20.8317 11.4622C20.9424 11.3283 21 11.1648 21 10.9998C21 10.9014 20.9793 10.803 20.9378 10.7096C20.8113 10.4244 20.5135 10.2387 20.1818 10.2387H3.81818L3.7156 10.2446Z" fill="#0E518F"/>
</svg>
