<svg width="22" height="22" viewBox="0 0 22 22" fill="none" xmlns="http://www.w3.org/2000/svg">
<path d="M8.60748 5.50982C8.77248 5.73898 8.89165 5.94982 8.97415 6.15148C9.05665 6.34398 9.10248 6.53648 9.10248 6.71065C9.10248 6.93065 9.03831 7.15065 8.90998 7.36148C8.79081 7.57232 8.61665 7.79232 8.39665 8.01232L7.69998 8.73648C7.59915 8.83732 7.55331 8.95648 7.55331 9.10315C7.55331 9.17648 7.56248 9.24065 7.58081 9.31398C7.60831 9.38732 7.63581 9.44232 7.65415 9.49732C7.81915 9.79982 8.10331 10.194 8.50665 10.6707C8.91915 11.1473 9.35915 11.6332 9.83581 12.119C10.3308 12.6048 10.8075 13.054 11.2933 13.4665C11.77 13.8698 12.1641 14.1448 12.4758 14.3098C12.5216 14.3282 12.5766 14.3557 12.6408 14.3832C12.7141 14.4107 12.7875 14.4198 12.87 14.4198C13.0258 14.4198 13.145 14.3648 13.2458 14.264L13.9425 13.5765C14.1716 13.3473 14.3916 13.1732 14.6025 13.0632C14.8133 12.9348 15.0241 12.8707 15.2533 12.8707C15.4275 12.8707 15.6108 12.9073 15.8125 12.9898C16.0141 13.0723 16.225 13.1915 16.4541 13.3473L19.4883 15.5015C19.7266 15.6665 19.8916 15.859 19.9925 16.0882C20.0841 16.3173 20.1391 16.5465 20.1391 16.8032C20.1391 17.1332 20.0658 17.4723 19.91 17.8023C19.7541 18.1323 19.5525 18.444 19.2866 18.7373C18.8375 19.2323 18.3425 19.5898 17.7833 19.819C17.2333 20.0482 16.6375 20.1673 15.9958 20.1673C15.0608 20.1673 14.0616 19.9473 13.0075 19.4982C11.9533 19.049 10.8991 18.444 9.85415 17.6832C8.79998 16.9132 7.80081 16.0607 6.84748 15.1165C5.90331 14.1632 5.05081 13.164 4.28998 12.119C3.53831 11.074 2.93331 10.029 2.49331 8.99315C2.05331 7.94815 1.83331 6.94898 1.83331 5.99565C1.83331 5.37232 1.94331 4.77648 2.16331 4.22648C2.38331 3.66732 2.73165 3.15398 3.21748 2.69565C3.80415 2.11815 4.44581 1.83398 5.12415 1.83398C5.38081 1.83398 5.63748 1.88898 5.86665 1.99898C6.10498 2.10898 6.31581 2.27398 6.48081 2.51232" stroke="#1c314e" stroke-width="1.5" stroke-miterlimit="10" stroke-linecap="round" stroke-linejoin="round"/>
</svg>