<svg width="22" height="22" viewBox="0 0 22 22" fill="none" xmlns="http://www.w3.org/2000/svg">
<path d="M8.60754 5.50884C8.77254 5.73801 8.89171 5.94884 8.97421 6.15051C9.05671 6.34301 9.10254 6.53551 9.10254 6.70967C9.10254 6.92967 9.03837 7.14967 8.91004 7.36051C8.79087 7.57134 8.61671 7.79134 8.39671 8.01134L7.70004 8.73551C7.59921 8.83634 7.55337 8.95551 7.55337 9.10217C7.55337 9.17551 7.56254 9.23967 7.58087 9.31301C7.60837 9.38634 7.63587 9.44134 7.65421 9.49634C7.81921 9.79884 8.10337 10.193 8.50671 10.6697C8.91921 11.1463 9.35921 11.6322 9.83587 12.118C10.3309 12.6038 10.8075 13.053 11.2934 13.4655C11.77 13.8688 12.1642 14.1438 12.4759 14.3088C12.5217 14.3272 12.5767 14.3547 12.6409 14.3822C12.7142 14.4097 12.7875 14.4188 12.87 14.4188C13.0259 14.4188 13.145 14.3638 13.2459 14.263L13.9425 13.5755C14.1717 13.3463 14.3917 13.1722 14.6025 13.0622C14.8134 12.9338 15.0242 12.8697 15.2534 12.8697C15.4275 12.8697 15.6109 12.9063 15.8125 12.9888C16.0142 13.0713 16.225 13.1905 16.4542 13.3463L19.4884 15.5005C19.7267 15.6655 19.8917 15.858 19.9925 16.0872C20.0842 16.3163 20.1392 16.5455 20.1392 16.8022C20.1392 17.1322 20.0659 17.4713 19.91 17.8013C19.7542 18.1313 19.5525 18.443 19.2867 18.7363C18.8375 19.2313 18.3425 19.5888 17.7834 19.818C17.2334 20.0472 16.6375 20.1663 15.9959 20.1663C15.0609 20.1663 14.0617 19.9463 13.0075 19.4972C11.9534 19.048 10.8992 18.443 9.85421 17.6822C8.80004 16.9122 7.80087 16.0597 6.84754 15.1155C5.90337 14.1622 5.05087 13.163 4.29004 12.118C3.53837 11.073 2.93337 10.028 2.49337 8.99218C2.05337 7.94718 1.83337 6.94801 1.83337 5.99467C1.83337 5.37134 1.94337 4.77551 2.16337 4.22551C2.38337 3.66634 2.73171 3.15301 3.21754 2.69467C3.80421 2.11717 4.44587 1.83301 5.12421 1.83301C5.38087 1.83301 5.63754 1.88801 5.86671 1.99801C6.10504 2.10801 6.31587 2.27301 6.48087 2.51134" stroke="#1c3143" stroke-width="1.5" stroke-miterlimit="10" stroke-linecap="round" stroke-linejoin="round"/>
</svg>
