<svg width="38" height="38" viewBox="0 0 38 38" fill="none" xmlns="http://www.w3.org/2000/svg">
<path d="M3.16669 20.5678V23.7503C3.16669 31.667 6.33335 34.8337 14.25 34.8337H23.75C31.6667 34.8337 34.8334 31.667 34.8334 23.7503V14.2503C34.8334 6.33366 31.6667 3.16699 23.75 3.16699H14.25C6.33335 3.16699 3.16669 6.33366 3.16669 14.2503" stroke="#3175D5" stroke-width="2" stroke-linecap="round" stroke-linejoin="round"/>
<path d="M17.4166 12.6667C17.4166 14.4083 15.9916 15.8333 14.25 15.8333C12.5083 15.8333 11.0833 14.4083 11.0833 12.6667C11.0833 10.925 12.5083 9.5 14.25 9.5" stroke="#3175D5" stroke-width="2" stroke-linecap="round" stroke-linejoin="round"/>
<path d="M4.22736 30.0032L12.0332 24.7624C13.284 23.9232 15.089 24.0182 16.2132 24.9841L16.7357 25.4432C17.9707 26.5041 19.9657 26.5041 21.2007 25.4432L27.7874 19.7907C29.0224 18.7299 31.0174 18.7299 32.2524 19.7907L34.8332 22.0074" stroke="#3175D5" stroke-width="2" stroke-linecap="round" stroke-linejoin="round"/>
</svg>
