<svg width="63" height="20" viewBox="0 0 63 20" fill="none" xmlns="http://www.w3.org/2000/svg">
<path d="M4.434 3.79V8.34H10.544V11.226H4.434V16.036H11.324V19H0.794V0.825998H11.324V3.79H4.434ZM20.1439 19.234C18.9652 19.234 17.9079 19.026 16.9719 18.61C16.0359 18.1767 15.2906 17.596 14.7359 16.868C14.1986 16.14 13.9039 15.334 13.8519 14.45H17.5179C17.5872 15.0047 17.8559 15.464 18.3239 15.828C18.8092 16.192 19.4072 16.374 20.1179 16.374C20.8112 16.374 21.3486 16.2353 21.7299 15.958C22.1286 15.6807 22.3279 15.3253 22.3279 14.892C22.3279 14.424 22.0852 14.0773 21.5999 13.852C21.1319 13.6093 20.3779 13.3493 19.3379 13.072C18.2632 12.812 17.3792 12.5433 16.6859 12.266C16.0099 11.9887 15.4206 11.564 14.9179 10.992C14.4326 10.42 14.1899 9.64867 14.1899 8.678C14.1899 7.88067 14.4152 7.15267 14.8659 6.494C15.3339 5.83533 15.9926 5.31533 16.8419 4.934C17.7086 4.55267 18.7226 4.362 19.8839 4.362C21.5999 4.362 22.9692 4.79533 23.9919 5.662C25.0146 6.51133 25.5779 7.664 25.6819 9.12H22.1979C22.1459 8.548 21.9032 8.09733 21.4699 7.768C21.0539 7.42133 20.4906 7.248 19.7799 7.248C19.1212 7.248 18.6099 7.36933 18.2459 7.612C17.8992 7.85467 17.7259 8.19267 17.7259 8.626C17.7259 9.11133 17.9686 9.484 18.4539 9.744C18.9392 9.98667 19.6932 10.238 20.7159 10.498C21.7559 10.758 22.6139 11.0267 23.2899 11.304C23.9659 11.5813 24.5466 12.0147 25.0319 12.604C25.5346 13.176 25.7946 13.9387 25.8119 14.892C25.8119 15.724 25.5779 16.4693 25.1099 17.128C24.6592 17.7867 24.0006 18.3067 23.1339 18.688C22.2846 19.052 21.2879 19.234 20.1439 19.234ZM33.0379 7.586V14.554C33.0379 15.0393 33.1505 15.3947 33.3759 15.62C33.6185 15.828 34.0172 15.932 34.5719 15.932H36.2619V19H33.9739C30.9059 19 29.3719 17.5093 29.3719 14.528V7.586H27.6559V4.596H29.3719V1.034H33.0379V4.596H36.2619V7.586H33.0379ZM52.2699 11.486C52.2699 12.006 52.2353 12.474 52.1659 12.89H41.6359C41.7226 13.93 42.0866 14.7447 42.7279 15.334C43.3693 15.9233 44.1579 16.218 45.0939 16.218C46.4459 16.218 47.4079 15.6373 47.9799 14.476H51.9059C51.4899 15.8627 50.6926 17.0067 49.5139 17.908C48.3353 18.792 46.8879 19.234 45.1719 19.234C43.7853 19.234 42.5373 18.9307 41.4279 18.324C40.3359 17.7 39.4779 16.8247 38.8539 15.698C38.2473 14.5713 37.9439 13.2713 37.9439 11.798C37.9439 10.3073 38.2473 8.99867 38.8539 7.872C39.4606 6.74533 40.3099 5.87867 41.4019 5.272C42.4939 4.66533 43.7506 4.362 45.1719 4.362C46.5413 4.362 47.7633 4.65667 48.8379 5.246C49.9299 5.83533 50.7706 6.676 51.3599 7.768C51.9666 8.84267 52.2699 10.082 52.2699 11.486ZM48.4999 10.446C48.4826 9.51 48.1446 8.76467 47.4859 8.21C46.8273 7.638 46.0213 7.352 45.0679 7.352C44.1666 7.352 43.4039 7.62933 42.7799 8.184C42.1733 8.72133 41.8006 9.47533 41.6619 10.446H48.4999ZM59.1648 7.586V14.554C59.1648 15.0393 59.2775 15.3947 59.5028 15.62C59.7455 15.828 60.1441 15.932 60.6988 15.932H62.3888V19H60.1008C57.0328 19 55.4988 17.5093 55.4988 14.528V7.586H53.7828V4.596H55.4988V1.034H59.1648V4.596H62.3888V7.586H59.1648Z" fill="white"/>
</svg>
