<svg width="24" height="24" viewBox="0 0 24 24" fill="none" xmlns="http://www.w3.org/2000/svg">
<path d="M11.9984 1.99902C14.7149 1.99902 15.0539 2.00902 16.1197 2.05899C17.1845 2.10896 17.9094 2.27586 18.5473 2.52372C19.2072 2.77757 19.7631 3.12137 20.319 3.67604C20.8274 4.17564 21.2208 4.77998 21.4718 5.447C21.7188 6.08363 21.8867 6.80921 21.9367 7.87358C21.9837 8.93896 21.9967 9.27776 21.9967 11.9932C21.9967 14.7086 21.9867 15.0474 21.9367 16.1128C21.8867 17.1771 21.7188 17.9017 21.4718 18.5393C21.2215 19.2067 20.828 19.8112 20.319 20.3103C19.819 20.8183 19.2145 21.2115 18.5473 21.4626C17.9104 21.7095 17.1845 21.8774 16.1197 21.9274C15.0539 21.9743 14.7149 21.9873 11.9984 21.9873C9.2818 21.9873 8.94286 21.9773 7.87703 21.9274C6.81221 21.8774 6.08733 21.7095 5.44943 21.4626C4.78187 21.2122 4.17717 20.8189 3.67772 20.3103C3.16921 19.8108 2.7758 19.2064 2.52491 18.5393C2.27695 17.9027 2.10998 17.1771 2.05999 16.1128C2.013 15.0474 2 14.7086 2 11.9932C2 9.27776 2.01 8.93896 2.05999 7.87358C2.10998 6.80821 2.27695 6.08463 2.52491 5.447C2.77511 4.77957 3.16861 4.17507 3.67772 3.67604C4.17731 3.16757 4.78197 2.7743 5.44943 2.52372C6.08733 2.27586 6.81121 2.10896 7.87703 2.05899C8.94286 2.01202 9.2818 1.99902 11.9984 1.99902ZM11.9984 6.9961C10.6725 6.9961 9.40093 7.52257 8.4634 8.4597C7.52587 9.39684 6.99918 10.6679 6.99918 11.9932C6.99918 13.3185 7.52587 14.5895 8.4634 15.5266C9.40093 16.4638 10.6725 16.9902 11.9984 16.9902C13.3242 16.9902 14.5958 16.4638 15.5333 15.5266C16.4708 14.5895 16.9975 13.3185 16.9975 11.9932C16.9975 10.6679 16.4708 9.39684 15.5333 8.4597C14.5958 7.52257 13.3242 6.9961 11.9984 6.9961ZM18.4973 6.74624C18.4973 6.41492 18.3656 6.09716 18.1312 5.86288C17.8968 5.62859 17.579 5.49697 17.2475 5.49697C16.916 5.49697 16.5981 5.62859 16.3638 5.86288C16.1294 6.09716 15.9977 6.41492 15.9977 6.74624C15.9977 7.07757 16.1294 7.39533 16.3638 7.62961C16.5981 7.86389 16.916 7.99551 17.2475 7.99551C17.579 7.99551 17.8968 7.86389 18.1312 7.62961C18.3656 7.39533 18.4973 7.07757 18.4973 6.74624ZM11.9984 8.99493C12.7939 8.99493 13.5568 9.31081 14.1193 9.87309C14.6818 10.4354 14.9979 11.198 14.9979 11.9932C14.9979 12.7884 14.6818 13.551 14.1193 14.1132C13.5568 14.6755 12.7939 14.9914 11.9984 14.9914C11.2028 14.9914 10.4399 14.6755 9.87738 14.1132C9.31487 13.551 8.99885 12.7884 8.99885 11.9932C8.99885 11.198 9.31487 10.4354 9.87738 9.87309C10.4399 9.31081 11.2028 8.99493 11.9984 8.99493Z" fill="#3175D5"/>
</svg>
