<svg width="22" height="22" viewBox="0 0 22 22" fill="none" xmlns="http://www.w3.org/2000/svg">
<path d="M20.1666 8.25054V13.7505C20.1666 16.0422 19.7083 17.6464 18.6817 18.6822L12.8333 12.8339L19.9192 5.74805C20.0842 6.47221 20.1666 7.29721 20.1666 8.25054Z" stroke="#1c314E" stroke-width="1.5" stroke-linecap="round" stroke-linejoin="round"/>
<path d="M1.83331 8.25065C1.83331 3.66732 3.66665 1.83398 8.24998 1.83398H13.75C17.38 1.83398 19.2867 2.98899 19.9192 5.74815L5.74747 19.9198C2.9883 19.2873 1.83331 17.3807 1.83331 13.7507V11.8623" stroke="#1c314E" stroke-width="1.5" stroke-linecap="round" stroke-linejoin="round"/>
<path d="M18.6817 18.6823C17.6458 19.709 16.0417 20.1673 13.75 20.1673H8.25001C7.29667 20.1673 6.47166 20.0848 5.7475 19.9198L12.8333 12.834L18.6817 18.6823Z" stroke="#1c314E" stroke-width="1.5" stroke-linecap="round" stroke-linejoin="round"/>
<path d="M5.71994 7.31516C6.34327 4.62932 10.3766 4.62932 10.9999 7.31516C11.3574 8.89182 10.3674 10.2302 9.4966 11.0552C8.8641 11.6602 7.86495 11.6602 7.22328 11.0552C6.35245 10.2302 5.35327 8.89182 5.71994 7.31516Z" stroke="#1c314E" stroke-width="1.5"/>
<path d="M8.33672 7.97591H8.34495" stroke="#1c314E" stroke-width="2" stroke-linecap="round" stroke-linejoin="round"/>
</svg>