<svg width="164" height="67" viewBox="0 0 164 67" fill="none" xmlns="http://www.w3.org/2000/svg">
<g clip-path="url(#clip0)">
<path fill-rule="evenodd" clip-rule="evenodd" d="M61.5897 45.3422C61.5903 49.6293 59.9683 53.917 56.7236 57.1877C50.2354 63.729 39.7164 63.729 33.2276 57.1877C31.1359 59.2966 28.6249 60.7252 25.9651 61.4741C24.7991 60.7053 23.7601 59.7576 22.8868 58.6685C25.8046 58.3574 28.6406 57.0747 30.8784 54.8192L33.2276 52.4501L35.5775 54.8186C40.7685 60.0521 49.1827 60.0521 54.3744 54.8186C56.2696 52.9078 57.4724 50.5645 57.9833 48.1029C59.3093 47.35 60.5219 46.4187 61.5897 45.3415V45.3422ZM44.9736 4.90625C49.2259 4.90559 53.4788 6.54091 56.7229 9.81222C63.2111 16.3535 63.2111 26.9587 56.7229 33.5006C58.8147 35.6095 60.2317 38.1411 60.9739 40.8226C60.212 41.9982 59.2713 43.0457 58.191 43.9261C57.8825 40.9844 56.6102 38.1252 54.3731 35.8691L52.0232 33.5006L54.3724 31.1315C59.5634 25.898 59.5634 17.4149 54.3724 12.1807C52.4772 10.2699 50.1522 9.0573 47.7113 8.54214C46.9645 7.20535 46.0401 5.98282 44.9723 4.90625H44.9736ZM4.86688 21.6577C4.86622 17.3706 6.48826 13.0829 9.73299 9.81222C16.2211 3.27093 26.7401 3.27093 33.2283 9.81222C35.32 7.70334 37.831 6.27474 40.4908 5.52643C41.6568 6.29522 42.6958 7.24299 43.5691 8.33211C40.6513 8.64319 37.8153 9.92648 35.5775 12.1813L33.2276 14.5504L30.8784 12.182C25.6874 6.94842 17.2732 6.94842 12.0815 12.182C10.1863 14.0927 8.98355 16.4367 8.47257 18.8976C7.14664 19.6506 5.93404 20.5818 4.86622 21.6591L4.86688 21.6577ZM21.4797 62.091C17.2274 62.0917 12.9744 60.4564 9.73037 57.185C3.24222 50.6444 3.24222 40.0386 9.73037 33.4973C7.63862 31.3884 6.22163 28.8569 5.47874 26.1753C6.24129 24.9997 7.18136 23.9522 8.26163 23.0718C8.57018 26.0135 9.84305 28.8727 12.0796 31.1289L14.4294 33.498L12.0802 35.8664C6.88918 41.1 6.88918 49.583 12.0802 54.8173C13.9754 56.728 16.2997 57.9406 18.7413 58.4558C19.4881 59.7926 20.4118 61.0151 21.4803 62.0917L21.4797 62.091Z" fill="#7FC34D"/>
<path fill-rule="evenodd" clip-rule="evenodd" d="M44.9761 62.0927C41.9699 65.1249 37.8159 67 33.2275 67C24.0521 67 16.6141 59.501 16.6141 50.2498C13.6563 50.2498 10.8787 49.4698 8.47246 48.1033C8.18683 46.7289 8.11739 45.3175 8.26348 43.9252C10.5452 45.7851 13.4499 46.8999 16.6134 46.9006H19.9361V50.2498C19.9361 57.6517 25.8858 63.6501 33.2275 63.6501C35.9082 63.6501 38.4015 62.8503 40.4893 61.4745C41.9548 61.8873 43.4655 62.0934 44.9761 62.0934V62.0927ZM4.86742 45.3412C1.85984 42.3103 0 38.1216 0 33.4964C0 24.2458 7.4387 16.7462 16.6141 16.7469C16.6141 13.7648 17.3878 10.9645 18.7432 8.53855C20.1064 8.25058 21.5064 8.18057 22.8874 8.32786C21.0426 10.6283 19.9368 13.5568 19.9361 16.7469V20.0968H16.6134C9.27234 20.0968 3.32269 26.0951 3.32269 33.497C3.32269 36.1997 4.11602 38.7134 5.4806 40.8183C5.07116 42.2958 4.86677 43.8188 4.86677 45.3419L4.86742 45.3412ZM21.4789 4.90729C24.4852 1.87507 28.6392 0 33.2275 0C42.4029 0 49.8416 7.49963 49.8409 16.7502C52.7987 16.7502 55.5764 17.5302 57.9826 18.8967C58.2682 20.2711 58.3376 21.6826 58.1916 23.0748C55.9098 21.2149 53.0051 20.1001 49.8416 20.0994H46.5189V16.7495C46.5189 9.34829 40.5693 3.3499 33.2275 3.3499C30.5475 3.3499 28.0535 4.14973 25.9657 5.52549C24.5002 5.11335 22.9896 4.90729 21.4789 4.90729ZM61.5876 21.6542C64.5945 24.685 66.455 28.8731 66.455 33.499C66.455 42.7495 59.017 50.2492 49.8409 50.2485C49.8409 53.2305 49.0673 56.0309 47.7119 58.4568C46.3486 58.7448 44.9486 58.8148 43.5677 58.6675C45.4124 56.3671 46.5183 53.4386 46.5189 50.2492V46.8993H49.8416C57.1827 46.8993 63.1323 40.9009 63.1323 33.4997C63.1323 30.797 62.339 28.2826 60.9744 26.1784C61.3839 24.7009 61.5883 23.1779 61.5883 21.6548L61.5876 21.6542Z" fill="#FEFEFE"/>
<path fill-rule="evenodd" clip-rule="evenodd" d="M80.3294 41.7761H93.0666V45.5097H74.104V43.2932L86.8353 25.551H74.7919V21.8174H93.0666V24.0279L80.3294 41.7761ZM102.281 42.385C104.361 42.385 106.096 41.7985 107.494 40.6196L109.983 43.1122C108.148 44.9278 105.581 45.8419 102.281 45.8419C99.484 45.8419 97.313 45.0243 95.7584 43.3942C94.2091 41.7642 93.4315 39.6553 93.4315 37.0663C93.4315 35.3801 93.7617 33.8855 94.4273 32.583C95.0876 31.2746 96.0945 30.237 97.448 29.459C98.8014 28.681 100.413 28.2919 102.281 28.2919C105.212 28.2919 107.455 29.1882 109.022 30.9873C110.582 32.7805 111.287 35.3471 111.13 38.6851H97.8731C97.8731 38.9499 97.9177 39.232 98.0074 39.5371C98.0913 39.8416 98.2478 40.1632 98.466 40.5014C98.6841 40.8455 98.9527 41.1552 99.277 41.426C99.596 41.7021 100.021 41.9333 100.547 42.1142C101.073 42.2946 101.648 42.385 102.281 42.385ZM97.8731 35.4316H106.689C106.689 35.0875 106.616 34.7209 106.46 34.3319C106.308 33.9429 106.079 33.5427 105.766 33.1424C105.453 32.7422 104.994 32.4093 104.389 32.1438C103.78 31.8789 103.081 31.7495 102.281 31.7495C101.487 31.7495 100.782 31.8789 100.177 32.1438C99.5731 32.4086 99.1145 32.7415 98.8008 33.1424C98.4876 33.5427 98.2583 33.9429 98.1018 34.3319C97.9511 34.7209 97.8725 35.0875 97.8725 35.4316H97.8731ZM112.832 45.5097V28.6248H116.943V30.1756C117.24 29.6565 117.754 29.2166 118.498 28.8447C119.243 28.4782 120.02 28.2919 120.825 28.2919C122.107 28.2919 123.214 28.5006 124.148 28.9121C125.082 29.3236 125.803 29.8936 126.318 30.6208C126.821 29.9722 127.532 29.4194 128.455 28.9683C129.378 28.5172 130.379 28.2919 131.465 28.2919C133.574 28.2919 135.224 28.8949 136.421 30.1023C137.618 31.309 138.217 33.1649 138.217 35.6628V45.5097H134.1V35.6628C134.1 34.4502 133.832 33.4971 133.3 32.7977C132.763 32.0982 131.946 31.7488 130.839 31.7488C129.737 31.7488 128.92 32.0982 128.384 32.7977C127.847 33.4971 127.578 34.4502 127.578 35.6628V45.5097H123.467V35.6628C123.467 34.4502 123.198 33.4971 122.661 32.7977C122.13 32.0982 121.307 31.7488 120.205 31.7488C119.103 31.7488 118.281 32.0982 117.744 32.7977C117.212 33.4971 116.944 34.4502 116.944 35.6628V45.5097H112.832H112.832ZM141.238 25.3033C140.769 24.8298 140.533 24.2545 140.533 23.5834C140.533 22.9124 140.769 22.3424 141.238 21.8689C141.708 21.3947 142.273 21.1582 142.939 21.1582C143.605 21.1582 144.175 21.3953 144.645 21.8689C145.115 22.3424 145.35 22.9117 145.35 23.5834C145.35 24.2545 145.115 24.8298 144.645 25.3033C144.175 25.7769 143.605 26.014 142.939 26.014C142.273 26.014 141.708 25.7769 141.238 25.3033ZM140.892 45.5097V28.6248H145.003V45.5097H140.892ZM151.778 36.4692V45.5097H147.667V28.6248H151.778V31.202C152.108 30.2324 152.724 29.5046 153.636 29.0198C154.553 28.535 155.504 28.2926 156.5 28.2926C158.849 28.2926 160.684 28.9973 162.015 30.4015C163.341 31.8056 164.001 33.83 164.001 36.4699V45.5104H159.889V36.4699C159.889 34.9865 159.548 33.8254 158.86 32.9958C158.172 32.161 157.165 31.7495 155.845 31.7495C154.508 31.7495 153.501 32.161 152.807 32.9958C152.12 33.8247 151.778 34.9865 151.778 36.4699V36.4692Z" fill="#FEFEFE"/>
<path d="M105.02 57.4459V56.1197C104.765 56.6474 104.385 57.0503 103.884 57.3257C103.383 57.6011 102.864 57.7412 102.33 57.7412C101.586 57.7412 100.93 57.5661 100.367 57.2161C99.8063 56.866 99.3818 56.4031 99.0988 55.8225C98.8158 55.2446 98.6743 54.5967 98.6743 53.8781C98.6743 53.1575 98.8158 52.5096 99.0988 51.9317C99.3818 51.3511 99.8063 50.8881 100.367 50.5381C100.93 50.188 101.586 50.015 102.33 50.015C102.864 50.015 103.383 50.153 103.884 50.4278C104.385 50.7058 104.765 51.1061 105.02 51.6338V50.1603H106.395V57.4466C106.395 58.2048 106.304 58.8501 106.122 59.3831C105.941 59.9161 105.673 60.3342 105.318 60.6367C104.965 60.9392 104.558 61.1571 104.102 61.2918C103.643 61.4272 103.111 61.4946 102.506 61.4946C101.913 61.4946 101.327 61.4147 100.746 61.2542C100.163 61.0963 99.6792 60.8711 99.2921 60.5759L100.047 59.6453C100.814 60.1208 101.633 60.356 102.506 60.356C103.432 60.356 104.082 60.1136 104.456 59.6228C104.834 59.1348 105.02 58.4096 105.02 57.4459H105.02ZM103.656 51.3881C103.331 51.2303 102.961 51.1503 102.549 51.1503C102.137 51.1503 101.77 51.2303 101.444 51.3881C101.119 51.5453 100.861 51.7586 100.665 52.0208C100.471 52.2857 100.325 52.5763 100.226 52.894C100.126 53.2117 100.077 53.5393 100.077 53.8774C100.077 54.2176 100.127 54.5478 100.226 54.8635C100.325 55.1785 100.471 55.4665 100.665 55.732C100.86 55.9949 101.119 56.2076 101.444 56.3647C101.769 56.5246 102.137 56.6025 102.549 56.6025C102.961 56.6025 103.33 56.5246 103.656 56.3647C103.979 56.2069 104.239 55.9942 104.433 55.732C104.627 55.4672 104.773 55.1792 104.872 54.8635C104.971 54.5485 105.021 54.2182 105.021 53.8774C105.021 53.5399 104.971 53.2117 104.872 52.894C104.773 52.5763 104.627 52.2863 104.433 52.0208C104.239 51.758 103.979 51.5453 103.656 51.3881ZM113.266 50.3373L112.648 51.398C112.368 51.2329 112.006 51.1503 111.559 51.1503C110.196 51.1503 109.516 51.966 109.516 53.5974V57.5932H108.141V50.1596H109.516V51.2831C109.636 50.9205 109.888 50.6173 110.271 50.3776C110.656 50.1345 111.108 50.015 111.631 50.015C112.242 50.015 112.787 50.1226 113.267 50.338L113.266 50.3373ZM117.66 57.7405C116.424 57.7405 115.444 57.3779 114.721 56.6547C113.999 55.9315 113.64 55.0062 113.64 53.8774C113.64 52.7467 113.999 51.8207 114.721 51.0975C115.444 50.3743 116.424 50.0143 117.66 50.0143C118.891 50.0143 119.869 50.3749 120.593 51.0975C121.318 51.8207 121.681 52.7467 121.681 53.8774C121.681 55.0062 121.319 55.9315 120.593 56.6547C119.869 57.3779 118.891 57.7405 117.66 57.7405ZM116.504 56.3793C116.844 56.5292 117.228 56.6019 117.66 56.6019C118.092 56.6019 118.476 56.5292 118.816 56.3793C119.154 56.2313 119.427 56.0292 119.632 55.7736C119.838 55.5207 119.995 55.2334 120.101 54.9104C120.208 54.5874 120.263 54.242 120.263 53.8768C120.263 53.5142 120.208 53.1714 120.101 52.8511C119.995 52.5281 119.839 52.2381 119.632 51.9806C119.427 51.7256 119.154 51.5228 118.816 51.3729C118.476 51.225 118.092 51.1503 117.66 51.1503C117.228 51.1503 116.843 51.2256 116.504 51.3729C116.164 51.5228 115.89 51.7256 115.685 51.9806C115.479 52.2381 115.322 52.5281 115.216 52.8511C115.109 53.1714 115.057 53.5142 115.057 53.8768C115.057 54.242 115.109 54.5874 115.216 54.9104C115.322 55.2334 115.478 55.5207 115.685 55.7736C115.89 56.0286 116.164 56.2313 116.504 56.3793ZM128.588 54.1548V50.159H129.963V57.5926H128.588V56.4717C128.466 56.8317 128.216 57.1349 127.831 57.3772C127.448 57.6177 126.997 57.7398 126.474 57.7398C125.352 57.7398 124.518 57.4195 123.965 56.7815C123.411 56.1435 123.136 55.2677 123.136 54.1542V50.1583H124.511V54.1542C124.511 55.7855 125.188 56.6012 126.546 56.6012C127.908 56.6012 128.588 55.7855 128.588 54.1542L128.588 54.1548ZM131.708 50.159H133.083V51.6325C133.344 51.0949 133.703 50.692 134.157 50.4192C134.614 50.1491 135.103 50.0137 135.626 50.0137C136.415 50.0137 137.103 50.1867 137.688 50.5368C138.271 50.8868 138.708 51.3498 138.996 51.9304C139.284 52.5083 139.428 53.1562 139.428 53.8768C139.428 54.5947 139.284 55.2433 138.996 55.8212C138.708 56.4017 138.271 56.8647 137.688 57.2148C137.103 57.5648 136.415 57.7398 135.626 57.7398C135.103 57.7398 134.614 57.6025 134.157 57.3323C133.703 57.0622 133.343 56.6567 133.083 56.1191V61.4933H131.708V50.159ZM135.555 56.6019C135.885 56.6019 136.188 56.549 136.463 56.444C136.739 56.339 136.972 56.199 137.16 56.0213C137.349 55.841 137.51 55.6362 137.644 55.4005C137.779 55.1653 137.875 54.9203 137.935 54.6647C137.997 54.4071 138.026 54.1442 138.026 53.8768C138.026 53.534 137.977 53.2064 137.878 52.8913C137.778 52.5763 137.632 52.2857 137.438 52.0208C137.242 51.758 136.984 51.5453 136.659 51.3881C136.334 51.2303 135.967 51.1503 135.555 51.1503C135.143 51.1503 134.773 51.2303 134.448 51.3881C134.125 51.5453 133.865 51.7586 133.671 52.0208C133.478 52.2857 133.331 52.5763 133.232 52.8913C133.133 53.2064 133.084 53.5346 133.084 53.8768C133.084 54.2123 133.133 54.5399 133.232 54.8576C133.331 55.1752 133.478 55.4658 133.671 55.7307C133.865 55.9936 134.125 56.2062 134.448 56.3634C134.773 56.5233 135.143 56.6012 135.555 56.6012V56.6019Z" fill="#7FC34D"/>
</g>
<defs>
<clipPath id="clip0">
<rect width="164" height="67" fill="white"/>
</clipPath>
</defs>
</svg>
