<svg width="54" height="77" viewBox="0 0 54 77" fill="none" xmlns="http://www.w3.org/2000/svg">
<path d="M24.1331 48.2663H6.48571C5.23612 48.2663 4.22324 47.2534 4.22324 46.0038V10.7088C4.22324 9.45917 5.23612 8.44629 6.48571 8.44629H24.1331C25.3827 8.44629 26.3956 9.45917 26.3956 10.7088V46.0036C26.3956 47.2531 25.3827 48.2663 24.1331 48.2663ZM8.74819 43.7413H21.8707V12.9714H8.74819V43.7413Z" fill="#3175D5"/>
<path d="M24.9127 67.1959H5.90771C4.65811 67.1959 3.64523 66.183 3.64523 64.9334C3.64523 63.6838 4.65811 62.6709 5.90771 62.6709H24.9127C26.1623 62.6709 27.1752 63.6838 27.1752 64.9334C27.1752 66.183 26.1623 67.1959 24.9127 67.1959Z" fill="#3175D5"/>
<path d="M35.6218 67.1964H34.1964C32.9468 67.1964 31.9339 66.1835 31.9339 64.9339C31.9339 63.6843 32.9468 62.6714 34.1964 62.6714H35.6218C43.0873 62.6714 49.1609 56.5978 49.1609 49.1324C49.1609 41.667 43.0872 35.5933 35.6218 35.5933H22.3603C21.1108 35.5933 20.0979 34.5804 20.0979 33.3308C20.0979 32.0812 21.1108 31.0684 22.3603 31.0684H35.6218C45.5822 31.0684 53.6858 39.1717 53.6858 49.1324C53.6858 59.093 45.5823 67.1964 35.6218 67.1964Z" fill="#3175D5"/>
<path d="M22.6492 40.6459C27.0225 40.6459 30.5678 37.1006 30.5678 32.7273C30.5678 28.3539 27.0225 24.8086 22.6492 24.8086C18.2758 24.8086 14.7305 28.3539 14.7305 32.7273C14.7305 37.1006 18.2758 40.6459 22.6492 40.6459Z" fill="white"/>
<path d="M22.6501 42.9085C17.0362 42.9085 12.4688 38.3411 12.4688 32.7272C12.4688 27.1133 17.0362 22.5459 22.6501 22.5459C28.264 22.5459 32.8314 27.1133 32.8314 32.7272C32.8314 38.3411 28.264 42.9085 22.6501 42.9085ZM22.6501 27.071C19.5313 27.071 16.9939 29.6084 16.9939 32.7272C16.9939 35.846 19.5313 38.3834 22.6501 38.3834C25.7689 38.3834 28.3063 35.846 28.3063 32.7272C28.3063 29.6084 25.7691 27.071 22.6501 27.071Z" fill="#3175D5"/>
<path d="M28.3566 48.2671H2.26248C1.01288 48.2671 0 47.2543 0 46.0047C0 44.7551 1.01288 43.7422 2.26248 43.7422H28.3566C29.6062 43.7422 30.6191 44.7551 30.6191 46.0047C30.6191 47.2543 29.6061 48.2671 28.3566 48.2671Z" fill="#3175D5"/>
<path d="M25.1462 60.107H5.65643C4.40683 60.107 3.39395 59.0941 3.39395 57.8445C3.39395 56.5949 4.40683 55.582 5.65643 55.582H25.1463C26.3959 55.582 27.4088 56.5949 27.4088 57.8445C27.4088 59.0941 26.3958 60.107 25.1462 60.107Z" fill="#3175D5"/>
<path d="M20.1364 12.9716H10.483C9.23337 12.9716 8.22049 11.9588 8.22049 10.7092V2.26248C8.22049 1.01288 9.23337 0 10.483 0H20.1364C21.386 0 22.3989 1.01288 22.3989 2.26248V10.709C22.3989 11.9585 21.386 12.9716 20.1364 12.9716ZM12.7454 8.44654H17.8739V4.52495H12.7454V8.44654Z" fill="#3175D5"/>
<path d="M24.9132 75.9438C23.6636 75.9438 22.6507 74.9309 22.6507 73.6813V64.9334C22.6507 63.6838 23.6636 62.6709 24.9132 62.6709C26.1628 62.6709 27.1756 63.6838 27.1756 64.9334V73.6813C27.1758 74.9309 26.1628 75.9438 24.9132 75.9438Z" fill="#3175D5"/>
<path d="M30.8522 76.9996H18.974C17.7244 76.9996 16.7115 75.9867 16.7115 74.7371C16.7115 73.4875 17.7244 72.4746 18.974 72.4746H30.8522C32.1018 72.4746 33.1147 73.4875 33.1147 74.7371C33.1147 75.9867 32.1018 76.9996 30.8522 76.9996Z" fill="#3175D5"/>
</svg>
