<svg width="68" height="68" viewBox="0 0 68 68" fill="none" xmlns="http://www.w3.org/2000/svg">
<path d="M34.9118 61.4933L27.0025 55.9567C27.0025 55.9567 26.6861 46.1491 29.5335 43.9345C32.3808 41.7199 32.539 34.1269 32.0644 31.2796C32.0644 31.2796 30.5853 27.0836 26.1195 27.8759C21.6537 28.6683 22.0859 33.7103 22.1579 36.3753C22.23 39.0404 18.9167 44.1544 16.6117 45.667C16.6117 45.667 17.332 39.4511 14.0908 35.6443C10.8495 31.8375 9.19282 21.1053 12.29 14.9829C15.3873 8.86043 22.6621 2.73801 36.3475 3.45829C50.033 4.17858 54.7148 11.0933 55.147 14.0465C55.5791 16.9996 52.5539 19.8088 52.5539 19.8088C52.5539 19.8088 48.8085 17.2878 45.5672 17.4318C45.5672 17.4318 45.9994 23.4822 38.2203 26.7955L37.572 35.2229L47.0798 45.3068C47.0798 45.3068 50.6812 41.9215 52.5539 41.9215C54.4267 41.9215 56.3715 43.7222 56.3715 45.0908C56.3715 46.4593 56.6596 47.6838 55.0029 49.3404C55.0029 49.3404 54.4987 47.4677 53.9945 47.9719C53.4903 48.4761 52.626 49.7006 53.4903 52.0775C54.3547 54.4545 55.0029 58.9202 52.77 62.9538C50.5371 66.9874 42.542 62.4496 39.949 61.5853C37.3559 60.7209 34.9118 61.4933 34.9118 61.4933Z" fill="#3175D5"/>
<path d="M57.3319 38.57C57.2844 38.2581 57.1956 37.9724 57.0936 37.6945C57.0004 37.411 56.8784 37.1456 56.7685 36.8722C56.3011 35.7966 55.7456 34.7724 55.1847 33.753C54.6796 32.8521 54.1506 31.9681 53.609 31.0882C54.0724 30.9541 54.5154 30.7745 54.9384 30.4883C55.2001 30.3025 55.467 30.0551 55.5978 29.6922C55.6362 29.6046 55.6509 29.5099 55.6592 29.413C55.6764 29.3121 55.6646 29.2316 55.6557 29.1494C55.6431 28.9769 55.6118 28.8306 55.5816 28.6847C55.4627 28.0962 55.3123 27.5316 55.1627 26.963C55.0123 26.3959 54.8513 25.8323 54.6864 25.2704C54.3601 24.1454 54.0113 23.0279 53.6556 21.9129C53.2856 20.8019 52.9304 19.6869 52.5334 18.585C52.8041 19.7245 53.1048 20.8548 53.3818 21.9915L54.2486 25.3893C54.5221 26.5214 54.8337 27.658 55.0401 28.7845C55.0914 29.0731 55.1387 29.328 55.0683 29.5046C55.0004 29.6963 54.8256 29.8762 54.6129 30.0222C54.184 30.3132 53.6279 30.5034 53.1014 30.6221L52.6916 30.7145L52.9127 31.0632C53.5296 32.0362 54.1269 33.0284 54.707 34.0257C55.291 35.021 55.8514 36.0312 56.3564 37.0603C56.5957 37.5749 56.8391 38.1075 56.9563 38.6288C57.0156 38.8707 56.9934 39.1719 56.9705 39.4409C56.9429 39.716 56.8692 39.9809 56.7577 40.2295C56.5391 40.7331 56.1187 41.1374 55.6529 41.4651C55.1847 41.7947 54.6703 42.066 54.1511 42.3237C54.6952 42.1231 55.2347 41.8996 55.737 41.5938C56.2366 41.2946 56.7212 40.9037 57.0122 40.3556C57.1566 40.0854 57.2527 39.7878 57.3002 39.4883C57.3408 39.1838 57.3844 38.9003 57.3319 38.57Z" fill="#3175D5"/>
<path opacity="0.25" d="M23.6808 9.94607C20.6504 11.2128 17.813 13.0638 15.7442 15.6149C13.6755 18.1659 12.4274 21.4598 12.6909 24.7337C13.6534 22.3209 15.188 20.1385 17.1331 18.4167C14.7877 23.0547 14.6394 28.7467 16.7403 33.5006C16.1396 29.7341 17.5182 25.7079 20.3013 23.1C20.2 26.8776 20.0987 30.6552 19.9974 34.4328C19.4037 31.8617 19.3242 29.0965 20.2959 26.6432C21.2676 24.1899 23.424 22.1139 26.0328 21.7178C28.6416 21.3217 31.5452 22.9373 32.1713 25.5007C33.0923 23.613 34.0133 21.7253 34.9343 19.8376C35.0273 21.3283 35.1203 22.819 35.2133 24.3097C36.3307 20.8202 38.7506 17.7645 41.8913 15.8774C45.0622 13.9722 48.6086 13.4867 52.2325 13.8755C47.9769 11.8337 44.2195 9.33099 39.4503 8.41825C34.1932 7.41215 28.632 7.87647 23.6808 9.94607Z" fill="#467082"/>
<path opacity="0.25" d="M19.9533 16.057C25.8009 11.9378 33.297 10.2332 40.3509 11.4188C37.0035 12.3611 34.2978 15.2873 33.62 18.6981C32.8801 17.9577 32.6846 16.7298 33.158 15.7963C31.794 17.1537 30.2575 18.3376 28.5972 19.3106C27.5746 18.492 26.1264 18.3776 24.8559 18.6963C23.5853 19.0149 22.4478 19.7123 21.3329 20.4C21.1109 20.5369 20.8889 20.6739 20.6669 20.8108C20.509 20.9081 20.3512 21.0055 20.1934 21.1028C19.405 21.5891 18.6165 22.0754 17.8281 22.5617C18.2988 21.5756 18.7719 20.5853 19.3831 19.6796C21.1662 17.0372 24.1422 15.2345 27.3099 14.8779C24.0621 14.3382 20.5749 15.5675 18.3835 18.0245C18.8107 16.6048 19.8595 15.3843 21.1987 14.7483" fill="#3175D5"/>
<path opacity="0.25" d="M51.7178 49.7964C51.9546 52.4334 52.1914 55.0704 52.4282 57.7074C52.4967 58.4692 52.5626 59.255 52.3301 59.9836C52.0974 60.7122 51.487 61.3763 50.7239 61.4268C49.755 61.4908 49.0221 60.624 48.3247 59.9484C45.5265 57.2382 40.7189 56.944 37.6112 59.293C38.6212 57.3089 40.9156 56.06 43.1302 56.2887C40.7631 54.9537 37.6118 55.1668 35.446 56.8082C36.1168 55.6536 36.7876 54.499 37.4584 53.3444C36.4513 54.2903 35.4442 55.2363 34.4372 56.1823C34.7893 54.6604 35.1415 53.1384 35.4937 51.6165C33.8017 52.2184 32.4425 53.6828 31.9681 55.4149C31.0058 52.8151 31.3247 49.7748 32.8053 47.4312C31.4637 48.8623 30.7096 50.8286 30.7501 52.7898C29.6967 51.5279 29.7351 49.6539 30.2701 48.0995C30.8052 46.5452 31.759 45.1714 32.422 43.6672C33.6718 40.832 33.8438 37.647 33.7999 34.5488C34.6134 36.5805 35.4269 38.6122 36.2404 40.6439C36.2643 39.5722 36.2881 38.5005 36.3119 37.4288C38.1444 40.8621 39.5533 44.5213 40.4964 48.2971C40.7993 46.7863 41.1023 45.2755 41.4053 43.7646C42.1056 44.9676 42.8058 46.1705 43.506 47.3734C43.7301 47.0083 43.9542 46.6433 44.1782 46.2782C44.9969 47.6324 45.8156 48.9866 46.6342 50.3409C47.1309 46.4515 51.0012 43.311 54.9095 43.626C55.3119 43.8181 55.2702 44.4506 54.9573 44.7683C54.6443 45.086 54.1838 45.1935 53.7689 45.3568C51.4675 46.2627 50.4838 49.5012 51.8925 51.5341" fill="#467082"/>
<path d="M34.6729 49.9583C35.8737 49.0767 36.8317 47.8678 37.4154 46.4972C37.3926 47.8181 37.3698 49.139 37.347 50.4598C37.3432 50.6799 37.3481 50.9238 37.4979 51.085C37.6949 51.297 38.0342 51.2602 38.3186 51.2068C39.7231 50.943 41.1276 50.6793 42.532 50.4155C42.2821 51.3582 42.0322 52.3009 41.7823 53.2436C43.4936 52.1331 45.9327 52.3048 47.4715 53.6441C48.5887 54.6165 49.1829 56.0418 49.74 57.414C49.0943 54.9463 48.8667 52.3698 49.07 49.8271C49.1561 50.4827 48.7721 51.1726 48.1697 51.445C47.5552 51.7229 46.8145 51.5683 46.2402 51.2147C45.666 50.861 45.2244 50.3329 44.7934 49.8142C44.5862 50.4021 44.3789 50.99 44.1717 51.5779C44.0079 50.6114 43.8441 49.6448 43.6802 48.6783C42.7543 49.0212 41.8283 49.3641 40.9024 49.707C40.2054 49.9651 39.3582 50.2033 38.775 49.7426C38.375 49.4267 38.2481 48.8846 38.1465 48.3851C37.9041 47.1934 37.6617 46.0018 37.4193 44.8101C37.0029 45.2876 36.5865 45.7651 36.1702 46.2426C36.0105 46.2426 35.3425 44.3425 35.1865 44.1367C34.8196 44.849 34.9591 46.1495 34.898 46.9626C34.823 47.9612 34.7479 48.9597 34.6729 49.9583Z" fill="#3175D5"/>
</svg>
