<svg width="22" height="22" viewBox="0 0 22 22" fill="none" xmlns="http://www.w3.org/2000/svg">
<path d="M1.83331 7.79232C1.83331 4.58398 3.66665 3.20898 6.41665 3.20898H12.8333" stroke="white" stroke-width="1.5" stroke-miterlimit="10" stroke-linecap="round" stroke-linejoin="round"/>
<path d="M20.1666 9.625V14.2083C20.1666 17.4167 18.3333 18.7917 15.5833 18.7917H6.41665C3.66665 18.7917 1.83331 17.4167 1.83331 14.2083V11.8983" stroke="white" stroke-width="1.5" stroke-miterlimit="10" stroke-linecap="round" stroke-linejoin="round"/>
<path d="M6.41669 8.25L9.28586 10.5417C10.23 11.2933 11.7792 11.2933 12.7234 10.5417L13.805 9.68" stroke="white" stroke-width="1.5" stroke-miterlimit="10" stroke-linecap="round" stroke-linejoin="round"/>
<path d="M17.875 7.33333C19.1406 7.33333 20.1666 6.30732 20.1666 5.04167C20.1666 3.77601 19.1406 2.75 17.875 2.75C16.6093 2.75 15.5833 3.77601 15.5833 5.04167C15.5833 6.30732 16.6093 7.33333 17.875 7.33333Z" stroke="white" stroke-width="1.5" stroke-miterlimit="10" stroke-linecap="round" stroke-linejoin="round"/>
</svg>
