<svg width="25" height="24" viewBox="0 0 25 24" fill="none" xmlns="http://www.w3.org/2000/svg">
<path d="M12.9901 21.9873C7.46796 21.9873 2.9917 17.5129 2.9917 11.9932C2.9917 6.4734 7.46796 1.99902 12.9901 1.99902C18.5121 1.99902 22.9884 6.4734 22.9884 11.9932C22.9884 17.5129 18.5121 21.9873 12.9901 21.9873ZM9.88057 13.1625L9.89356 13.1555L10.7634 16.0238C10.8754 16.3346 11.0294 16.3906 11.2163 16.3646C11.4043 16.3396 11.5033 16.2387 11.6263 16.1208L12.8141 14.9734L15.3637 16.8603C15.8296 17.1172 16.1645 16.9842 16.2805 16.4286L17.9372 8.61115C18.1202 7.88358 17.8003 7.59175 17.2354 7.82361L7.50396 11.5814C6.84007 11.8473 6.84406 12.219 7.38398 12.3839L9.88057 13.1635V13.1625Z" fill="#3175D5"/>
</svg>
