<svg width="143" height="96" viewBox="0 0 143 96" fill="none" xmlns="http://www.w3.org/2000/svg">
<g opacity="0.5" clip-path="url(#clip0)">
<path d="M131.494 95.9154C124.834 95.9154 120.884 92.5185 120.582 87.6266H126.95C126.95 89.2574 127.856 91.428 131.796 91.5628C134.527 91.5628 136.038 89.9325 136.038 88.7067C135.735 86.8058 133.307 86.6709 130.889 86.2555C128.159 85.861 126.043 85.3103 124.522 84.6352C122.406 83.5447 121.186 81.2283 121.186 78.7876C121.186 74.435 124.834 71.0381 131.191 71.0381C137.257 71.0381 141.197 74.1654 141.488 78.9224H135.433C135.433 77.7066 135.131 75.6608 131.493 75.6608C129.065 75.6608 127.554 76.0658 127.252 77.8315C127.252 80.2831 132.401 80.1478 136.34 81.093C139.977 82.0487 142.405 84.3546 142.405 87.6266C142.405 93.6095 137.559 95.9154 131.494 95.9154ZM15.4565 55.7749L36.3631 43.6738L47.5768 62.8487H19.396" fill="#111111"/>
<path d="M59.4194 95.1938V70.9922V95.1938Z" fill="#111111"/>
<path d="M59.4194 95.1938V70.9922" stroke="#111111" stroke-width="6.99192"/>
<path d="M5.7533 83.4527C5.7533 87.2541 9.08804 90.3808 12.7147 90.3808C16.6646 90.3808 19.687 87.2541 19.687 83.4527C19.687 79.7861 16.6646 76.5245 12.7147 76.5245C9.08804 76.5245 5.7533 79.7861 5.7533 83.4527ZM12.4128 95.9587C5.75283 95.9587 0 90.3808 0 83.4527C0 76.5245 5.7533 71.082 12.4128 71.082C15.1432 71.082 17.5713 71.7675 19.687 73.2525V71.3516H25.7527V95.408H19.6875V93.9125C17.8742 95.2732 15.1437 95.9587 12.4133 95.9587H12.4128ZM93.3317 62.8447L64.2443 12.2808L85.1503 0.0449219L121.512 62.8447H93.3317ZM33.6317 83.4527C33.6317 87.2541 36.665 90.3808 40.604 90.3808C44.2307 90.3808 47.5763 87.2541 47.5763 83.4527C47.5763 79.7861 44.2307 76.5245 40.604 76.5245C36.6645 76.5245 33.6317 79.7861 33.6317 83.4527ZM40.3016 95.9587C33.3293 95.9587 27.8788 90.3808 27.8788 83.4527C27.8788 76.5245 33.3293 71.082 40.3016 71.082C43.0216 71.082 45.4501 71.7675 47.5763 73.2525V63.0628H53.6315V95.408H47.5758V93.9125C45.4497 95.2732 43.0216 95.9587 40.3011 95.9587H40.3016ZM40.003 34.1647L61.2115 22.2094L84.5465 62.8433H62.421V68.8262H56.3653V62.8433L40.003 34.1647ZM138.476 69.0145C136.955 69.0145 135.444 67.6538 135.444 66.023C135.444 64.3923 136.955 63.0316 138.476 63.0316C140.289 63.0316 141.509 64.3927 141.509 66.023C141.509 67.6534 140.289 69.015 138.476 69.015V69.0145ZM138.476 63.4475C136.955 63.4475 136.048 64.6624 136.048 66.023C136.048 67.3837 136.955 68.6095 138.476 68.6095C139.988 68.6095 140.894 67.3842 140.894 66.023C140.894 64.6619 139.988 63.4475 138.476 63.4475Z" fill="#111111"/>
<path d="M139.102 67.662L138.497 66.3013H137.893V67.662H137.434V64.4004H138.799C139.102 64.4004 139.706 64.8162 139.706 65.356C139.706 65.8959 139.404 66.1665 139.102 66.3013L139.706 67.662H139.102ZM138.497 64.8162H137.893V65.8963H138.497C139.102 65.8963 139.102 65.7615 139.102 65.356C139.102 65.076 139.102 64.8162 138.497 64.8162ZM98.456 83.4504C98.456 87.2518 101.489 90.3785 105.428 90.3785C109.065 90.3785 112.39 87.2518 112.39 83.4504C112.39 79.7838 109.065 76.5222 105.428 76.5222C101.489 76.5222 98.456 79.7838 98.456 83.4504ZM105.116 95.9564C98.1541 95.9564 92.7032 90.3785 92.7032 83.4504C92.7032 76.5222 98.1541 71.0797 105.115 71.0797C107.846 71.0797 110.274 71.7652 112.39 73.2503V71.3493H118.153V95.4057H112.391V93.9102C110.274 95.2709 107.846 95.9564 105.115 95.9564H105.116ZM70.5985 83.4504C70.5985 87.2518 73.9332 90.3785 77.5704 90.3785C81.5103 90.3785 84.5427 87.2518 84.5427 83.4504C84.5427 79.7838 81.5098 76.5222 77.5704 76.5222C73.9332 76.5222 70.5985 79.7838 70.5985 83.4504ZM84.5427 63.0605H90.5979V95.4057H84.5427V93.9102C82.7189 95.2709 80.2908 95.9564 77.5704 95.9564C70.5985 95.9564 64.8452 90.3785 64.8452 83.4504C64.8452 76.5222 70.5985 71.0797 77.5704 71.0797C80.2904 71.0797 82.7189 71.7652 84.5427 73.2503V63.0605Z" fill="#111111"/>
</g>
<defs>
<clipPath id="clip0">
<rect width="142.405" height="96" fill="white"/>
</clipPath>
</defs>
</svg>
