<svg width="133" height="96" viewBox="0 0 133 96" fill="none" xmlns="http://www.w3.org/2000/svg">
<g opacity="0.5">
<path fill-rule="evenodd" clip-rule="evenodd" d="M79.4737 89.1458V84.5942C77.486 84.9224 76.3815 85.207 75.2774 85.6665C73.7313 86.2573 73.2896 86.9792 73.2896 88.8612C73.2896 90.5679 73.9521 91.2026 75.2774 91.2026C76.6027 91.2026 78.1484 90.4585 79.4737 89.1458ZM70.4186 78.8831L69.7561 79.1458L68.21 74.9443C70.1978 73.9159 71.0811 73.6097 72.848 73.1941C74.6149 72.7781 76.3815 72.5593 78.3692 72.5593C84.1117 72.5593 86.0994 74.5287 86.0994 80.3491V91.5308C86.0994 92.7122 86.7619 93.303 88.0868 93.303H88.3076V95.6445H81.6823C80.357 95.6445 79.6945 94.9662 79.6945 93.5438V92.8435C78.3692 94.0472 77.9276 94.3098 76.8235 94.8129C75.719 95.5132 74.1733 95.8633 72.6272 95.8633C68.6517 95.8633 66.8848 93.8064 66.8848 89.4956C66.8848 86.0602 68.21 83.872 71.0811 82.7342C71.9647 82.3624 72.848 82.0778 73.7313 81.859C75.4982 81.487 76.3815 81.3121 79.4737 80.8087V80.2397C79.4737 78.2268 78.8109 77.5046 76.6027 77.5046C76.1607 77.5046 75.2774 77.592 74.6149 77.6795C73.2896 77.9202 72.1855 78.1829 70.4186 78.8831ZM63.356 67.919C63.356 65.9057 61.8099 64.724 59.3805 64.724C56.7303 64.724 55.4053 65.9057 55.4053 67.919C55.4053 69.9759 56.7303 71.1792 59.3805 71.1792C61.8099 71.1792 63.356 69.9759 63.356 67.919ZM63.1352 95.6429V75.118C63.1352 73.6956 62.2519 72.864 60.9266 72.864H54.0801V75.3368H54.5217C55.847 75.3368 56.2886 75.8837 56.2886 77.131V95.6429H63.1352ZM18.299 83.397H11.2316L14.9863 71.2967L18.299 83.397ZM7.91892 95.6291L10.1275 88.2549H19.1823L21.3908 95.6291H28.9002L20.9492 67.6425C20.5075 65.8044 19.6242 65.2136 17.6365 65.2136H6.59365V67.7299H7.47727C8.80222 67.7299 9.46469 68.1456 9.46469 69.1524C9.46469 69.7868 9.46469 70.2027 8.80221 71.7123L0.851562 95.6291H7.91892ZM38.3951 95.6291V67.4456C38.3951 65.9793 37.5114 65.2136 35.9657 65.2136H29.1191V67.7299H29.5608C30.8857 67.7299 31.5485 68.2769 31.5485 69.4586V95.6291H38.3951ZM50.7642 67.4456V95.6291H43.9177V69.4586C43.9177 68.2769 43.2552 67.7299 41.9299 67.7299H41.4883V65.2136H48.3348C49.8806 65.2136 50.7642 65.9793 50.7642 67.4456ZM98.6879 95.624V80.1757C100.234 78.7533 101.338 78.2063 102.884 78.2063C104.43 78.2063 104.872 78.8627 104.872 81.1822V95.624H111.718V80.088C111.718 76.8933 111.277 75.5148 110.393 74.3114C109.289 73.1297 107.964 72.5828 105.976 72.5828C103.326 72.5828 101.338 73.5453 98.2463 76.1931V74.9678C98.2463 73.5454 97.5835 72.8451 96.2585 72.8451H89.6328V75.3179H89.8536C91.1789 75.3179 91.8414 75.8649 91.8414 77.1121V95.624H98.6879ZM122.768 91.2682H132.927V95.6226H115.259V90.8961L125.197 77.1545H119.897C118.572 77.1545 117.909 77.6578 117.909 78.905V79.3646H115.48V75.2289C115.48 73.5441 116.142 72.8438 117.909 72.8438H132.485V77.5265L122.768 91.2682Z" fill="#111111"/>
<path fill-rule="evenodd" clip-rule="evenodd" d="M70.5505 42.0768V13.7731C70.5505 11.4905 69.5806 10.7457 67.3981 10.7457H60.8502V13.8693H61.5778C62.7904 13.8693 63.2753 14.3257 63.2753 15.7192V42.0768H70.5505ZM74.4305 42.0768H81.4633V20.7169C81.4633 18.5545 80.4934 17.6895 78.3109 17.6895H74.4305V42.0768ZM59.3952 42.0768V17.6895H55.5152C53.3326 17.6895 52.3625 18.5545 52.3625 20.7169V42.0768H59.3952ZM89.7086 27.8529C89.7086 41.0918 80.0083 50.7505 66.9129 50.7505C53.8175 50.7505 44.1172 41.0918 44.1172 27.8529C44.1172 14.6141 53.8175 4.95525 66.9129 4.95525C80.0083 4.95525 89.7086 14.6141 89.7086 27.8529ZM94.3163 27.8529C94.3163 12.3556 82.6758 0.726494 66.9129 0.726494C51.3924 0.726494 39.5098 12.3556 39.5098 27.8529C39.5098 43.3983 51.3924 55.0273 66.9129 55.0273C82.6758 55.0273 94.3163 43.3983 94.3163 27.8529Z" fill="#111111"/>
</g>
</svg>
