<svg width="128" height="96" viewBox="0 0 128 96" fill="none" xmlns="http://www.w3.org/2000/svg">
<g opacity="0.5" clip-path="url(#clip0)">
<path d="M113.621 1.71354H96.675V4.45461H101.171V89.4278C101.056 91.2552 100.364 91.9405 97.5973 92.0547H96.675V94.4531H115.811V92.0547H113.851C110.623 91.9405 109.471 90.6842 109.355 87.8289V54.936H114.889C122.958 54.936 127.684 51.0528 127.684 45.9133V11.5357C127.684 6.39621 123.649 1.71354 113.621 1.71354ZM119.5 27.9821V46.256C119.5 49.1112 117.655 51.8523 114.082 51.7381H109.355V4.45461H113.621C116.848 4.45461 119.5 7.08147 119.5 10.2794V10.3936V27.9821ZM13.9074 54.936H18.8643V88.1715C18.9796 91.0268 16.6741 93.4252 13.7922 93.5394H13.6769C10.795 93.5394 8.72006 91.141 8.72006 88.1715V10.1652C8.72006 7.99516 9.18116 2.96987 12.87 3.08408C15.8671 3.08408 18.0574 5.82515 18.9796 10.051C20.017 14.391 20.7087 24.5558 20.7087 29.01C20.7087 30.4948 21.2851 31.0659 22.8989 31.0659H26.4724V1.71354H23.5906V3.08408C23.5906 4.56882 22.6684 4.45461 21.8614 3.99777C19.0948 2.17039 15.9824 0.914062 12.9852 0.914062C8.02841 0.914063 0.881348 3.08408 0.881348 12.4494V81.3188C0.996623 93.311 7.33676 95.481 13.6769 95.5952C18.5185 95.5952 20.824 93.0826 22.6684 92.1689C23.9364 91.5978 24.8586 93.0826 24.8586 94.91H27.3946V54.936H31.5446V51.9665H13.9074V54.936ZM55.2913 51.9665L59.787 14.7336L64.8591 52.0807L55.2913 51.9665ZM77.4241 87.8289L66.5882 1.71354H58.0579L47.222 88.0573C46.6456 90.7984 46.5303 91.4836 42.3804 91.7121V92.2831V94.3389H55.7523V91.9405C54.2538 92.0547 52.7552 91.5978 51.6024 90.6842C51.1413 90.1131 50.9108 89.542 50.9108 88.8568L54.9454 54.8218H65.3202L69.5854 88.8568C69.5854 91.0268 69.3548 91.8263 66.7035 91.9405H65.4355V94.3389H82.4962V91.9405H82.0351C78.6921 91.9405 77.6546 89.8847 77.4241 87.8289Z" fill="#111111"/>
</g>
<defs>
<clipPath id="clip0">
<rect width="126.803" height="95.7091" fill="white" transform="translate(0.881348)"/>
</clipPath>
</defs>
</svg>
