<svg width="162" height="96" viewBox="0 0 162 96" fill="none" xmlns="http://www.w3.org/2000/svg">
<g opacity="0.5">
<path fill-rule="evenodd" clip-rule="evenodd" d="M65.1453 25.8846C65.824 25.8846 66.371 25.3382 66.371 24.6667C66.3754 24.5043 66.3469 24.3427 66.2872 24.1914C66.2275 24.0401 66.1378 23.9021 66.0235 23.7857C65.9091 23.6694 65.7723 23.5768 65.6213 23.5137C65.4702 23.4505 65.3079 23.418 65.144 23.418C64.98 23.418 64.8177 23.4505 64.6667 23.5137C64.5156 23.5768 64.3788 23.6694 64.2645 23.7857C64.1501 23.9021 64.0604 24.0401 64.0007 24.1914C63.941 24.3427 63.9125 24.5043 63.9169 24.6667C63.9169 25.3382 64.4631 25.8846 65.1453 25.8846ZM79.9823 50.8419C81.805 50.8419 83.0317 50.5983 84.0194 50.2373C85.002 49.8754 85.7571 49.4396 86.3067 48.9933C86.8283 48.5705 87.1593 48.1416 87.7159 47.8598C88.2068 47.6084 88.8978 47.5492 89.6731 47.5492C90.7864 47.5492 92.0394 47.8902 92.9552 48.3896L93.0869 46.701C92.4766 46.4027 90.3255 45.6554 88.457 45.6554C86.3339 45.6554 85.5314 46.2226 84.7473 46.9237C83.8351 47.7432 82.6822 48.7175 79.5652 48.7175C78.7346 48.7175 76.7414 48.4948 75.9319 48.4948C75.4402 48.4948 75.0626 48.6166 75.0626 48.6166C75.211 49.0786 75.5289 50.3513 75.5289 50.3513C76.2752 50.4435 77.5773 50.8419 79.9823 50.8419ZM70.3994 45.8346C71.0307 45.8346 72.8667 46.1121 74.9871 46.3139C76.1918 46.4262 77.4807 46.5149 78.6977 46.5149C81.0798 46.5149 83.6884 45.3927 85.995 44.2209L85.5437 42.595C84.4664 43.1796 82.4162 43.8294 80.7075 44.0991C80.2869 44.1669 79.0656 44.1835 78.7179 44.1287C78.1419 44.0399 77.4509 43.8346 76.7081 43.7007C75.665 43.5067 74.5253 43.4606 73.8501 43.431C73.1046 43.3979 71.7683 43.5232 71.1115 43.5658C68.6987 43.7085 67.1042 44.2713 65.5782 45.2918C64.8072 45.8085 63.823 46.6523 63.0635 47.6736C63.4542 47.7023 64.5684 48.0103 64.5684 48.0103C66.2138 46.6236 68.6864 45.8346 70.3994 45.8346Z" fill="#111111"/>
<path fill-rule="evenodd" clip-rule="evenodd" d="M41.3244 46.6207C42.4992 46.6207 42.9707 46.9982 43.6187 47.3845C44.0727 47.662 44.4291 47.9682 44.7681 48.2718C45.4933 48.9138 45.2861 49.5027 44.7171 49.9473C44.4247 50.1778 44.1745 50.4553 43.437 50.9303C43.0814 51.1626 42.4667 51.5357 42.047 51.7115C41.3086 52.0142 40.9873 52.0481 40.7195 52.0481C40.4481 52.0481 40.0162 52.0064 39.7738 51.7672L37.8957 52.905C38.4594 53.3408 39.0995 53.4887 40.1768 53.4887C41.3938 53.4887 42.3649 53.2286 43.5643 52.7632C45.1193 52.1534 46.8674 50.9555 47.4478 50.6275C48.6358 49.9551 49.8352 49.5184 51.1197 49.5184C52.2515 49.5184 53.5273 50.1821 54.9567 50.8589C56.6443 51.661 58.705 52.4466 60.5998 52.4466C61.736 52.4466 63.0083 52.2821 64.3402 52.0133C66.7057 51.5349 69.2493 50.745 71.7385 49.909L70.9299 48.4693C70.3232 48.6911 68.2448 49.2705 66.0103 49.7628C64.1576 50.1656 62.2786 50.5301 61.304 50.5301C60.5076 50.5301 59.5699 50.4727 58.7305 50.2161C57.3055 49.7915 56.0253 49.3461 56.0253 48.2118C56.0253 47.4271 56.3642 46.8721 57.323 46.4902C58.8745 45.8725 61.2917 45.9108 62.5631 45.9108C62.8011 45.6585 63.7634 44.512 63.7634 44.512C62.7444 44.3086 61.7078 44.2046 60.6683 44.2014C59.0747 44.2014 57.6022 44.4032 56.3818 44.9113C55.25 45.3828 54.3597 46.063 53.7152 46.9825C53.4562 47.3479 53.1893 47.6959 52.8003 47.6959C52.1549 47.6959 51.0354 47.1748 49.8659 47.1748C49.3566 47.1748 48.9247 47.2792 48.4751 47.2792C47.2915 47.2792 45.7488 46.4267 44.3747 45.7003C43.5098 45.2427 42.6195 44.8138 41.5852 44.8138C41.1567 44.8138 40.5684 44.9191 40.046 45.1374C39.0415 45.5533 38.023 46.2257 37.5103 46.6494L38.4304 47.2757C38.9669 46.9982 39.9433 46.6207 41.3244 46.6207ZM124.393 59.6974C119.971 56.002 115.692 51.9585 112.675 48.6528C107.465 42.953 100.367 32.0763 97.9425 25.9216C97.0469 23.6572 95.1986 24.4262 96.1452 26.7289C98.4342 32.2912 103.713 40.4703 109.224 47.2131C107.94 46.6494 106.347 45.8925 105.486 45.5159C105.192 45.9908 104.467 46.9312 103.721 47.7037C102.857 48.5945 101.967 49.3166 101.691 49.5688C101.084 50.1282 100.64 50.17 100.232 49.5488C100.046 49.2539 99.652 48.7259 99.4474 47.809L98.2761 46.3397C97.6484 45.5585 94.7078 41.5725 93.807 40.2319C92.9087 38.8966 91.7436 37.4673 89.8558 37.4673C87.5203 37.4673 86.7142 40.0301 86.5325 42.3693L88.0831 41.7012C88.4448 40.2519 89.1622 39.4959 89.8567 39.4959C90.3519 39.4959 90.9595 40.2102 90.9595 40.7434C90.7347 41.3698 90.3265 42.6634 90.128 43.6629L91.6558 44.1762C91.6558 43.4402 91.9675 42.104 92.3969 41.4115C92.3969 41.4115 92.8201 41.7682 92.9781 42.0588C93.0791 42.2467 93.8342 43.3897 94.7087 44.9104C95.4893 46.2675 96.3568 47.9438 97.154 49.2792C97.5395 49.922 97.982 50.4979 98.277 50.9512C98.6713 51.5488 99.0251 51.9672 99.4 52.1786C99.7512 52.3709 100.131 52.3761 100.436 52.3761C101.424 52.3761 101.877 52.0516 102.547 51.4862C103.802 50.4135 104.884 48.9234 106.003 47.5871L108.64 48.7668C109.66 49.2474 110.69 49.7083 111.728 50.1491C113.976 52.6788 116.494 55.1573 119.135 57.5139L120.928 59.0806C121.418 59.4999 121.907 59.9114 122.405 60.3194L124.393 59.6974Z" fill="#111111"/>
<path fill-rule="evenodd" clip-rule="evenodd" d="M134.293 58.9385C129.776 49.1414 123.823 37.0929 118.732 29.7125L117.543 28.057C115.843 25.7856 114.003 23.9022 112.201 22.0754L110.801 20.7104C107.273 17.3238 103.314 13.9381 100.297 11.5257C97.6361 9.40139 95.7439 4.50195 89.6478 4.50195C84.153 4.50195 82.274 8.20263 81.6594 10.3714C81.2511 11.7946 81.0747 12.2861 80.6918 12.8202L77.2017 16.9376L81.3187 16.6096L79.2325 20.0415C80.4284 19.7944 87.6485 18.3573 89.1332 20.6678C90.9358 23.462 89.7057 26.4946 93.0756 32.8512L94.5331 35.3635C96.2102 38.0359 98.1963 40.6605 99.9611 42.7318L98.2735 46.3403L99.4448 47.8096L102.068 42.3281C100.729 41.1433 96.7212 35.8037 95.0643 32.8338C91.2984 26.0788 92.7779 22.6043 90.4801 19.5082C88.3518 16.6348 82.2644 17.9919 82.2644 17.9919L84.5095 14.8715L80.6233 15.3413L82.4207 13.1995C82.8035 12.6453 82.8922 12.3096 83.0485 11.7745C83.8115 9.03254 85.8125 6.31401 89.6118 6.31401C94.2249 6.31401 95.5437 9.82243 98.7503 12.6158C101.996 15.4474 108.803 20.8914 115.03 27.9317C120.051 33.6071 126.487 46.8022 131.431 57.217C126.026 54.6072 116.872 45.6347 113.038 38.9128L111.228 38.7032C115.345 46.4412 124.181 55.451 132.92 60.3565L134.293 58.9385Z" fill="#111111"/>
<path fill-rule="evenodd" clip-rule="evenodd" d="M121.776 26.5959C123.217 25.5703 124.923 24.7343 126.72 24.0583C127.827 25.3858 130.434 26.5489 132.503 26.8221L132.172 28.9908C129.878 27.8434 125.822 26.6751 121.776 26.5959L119.962 28.1409C125.452 28.2418 128.946 29.3431 133.471 31.2291L134.369 25.5033C132.575 25.2597 129.747 24.7517 128.768 23.3737C132.906 22.1253 137.2 21.6547 139.736 21.6895V14.6353C138.604 15.2912 137.179 15.9045 135.835 16.3168C134.191 16.8162 132.695 17.0354 132.284 16.3168C131.829 15.5269 134.098 14.1194 136.436 12.8885L131.173 8.55708C130.376 9.62014 128.564 12.5944 126.718 14.5596C125.406 15.9549 124.055 16.8701 123.283 16.2994C122.878 15.9967 122.862 15.1233 123.197 14.0228C123.837 11.9089 125.52 8.97291 126.546 7.67933L119.271 6.99817C119.271 9.94375 117.875 13.1868 116.157 15.8079C114.675 18.0637 112.524 19.7035 110.802 20.7108L112.202 22.0758C114.33 20.6099 116.403 18.8161 118.007 16.2612C119.297 14.2073 120.495 11.7245 120.945 8.81719L123.464 9.10688C122.416 11.0094 121.233 13.9637 121.143 15.8958C121.206 17.2103 121.462 17.4451 122.145 17.9453C123.408 18.8823 124.973 18.2524 126.465 16.9876C128.109 15.5965 129.727 13.2651 131.368 11.1556L133.494 12.9128C130.799 14.5587 130.036 16.3194 130.858 17.4869C131.179 17.9401 131.872 18.2811 132.731 18.3064C133.584 18.3272 134.594 18.0784 135.696 17.8183C136.472 17.633 137.312 17.3651 138.087 17.1293V19.9357C131.961 20.369 121.506 22.8256 117.545 28.0556L118.734 29.7111C119.077 29.1526 119.491 28.6307 119.963 28.1392L121.776 26.5959ZM41.6689 12.8084L42.4917 13.4208C44.6463 11.6819 47.1645 8.51881 48.5852 5.54018L47.8512 5.02344C46.477 6.27178 43.1994 10.3413 41.6689 12.8084Z" fill="#111111"/>
<path fill-rule="evenodd" clip-rule="evenodd" d="M40.4052 10.9043C39.197 6.67907 42.2956 4.14932 45.5311 4.3842C46.7446 2.06933 48.6473 1.60739 50.6702 2.80876C52.5527 3.93097 52.3956 6.78259 50.8265 8.1188C51.3867 10.6599 49.11 14.2814 45.5742 14.1013C45.9939 17.6088 41.6511 19.6045 39.0188 17.3139C36.8307 15.4123 37.2882 12.2449 40.4052 10.9043ZM38.9081 10.258C37.7851 10.5015 37.1995 11.06 36.699 12.2666C37.0344 9.52286 35.1941 6.89307 32.1622 7.0949C32.459 2.19285 27.5578 -0.726621 23.2239 1.65959C20.6635 -0.512619 17.8012 -0.0715651 16.0793 1.94928C14.4339 3.88139 14.4892 7.141 17.8143 8.88086C16.9741 12.2666 20.1042 15.6315 23.7841 14.8494C23.9957 15.8916 24.7675 16.4501 25.7851 16.8659C24.2547 16.9547 23.6269 18.4622 23.6269 18.4622C18.7468 17.2235 16.2286 20.437 16.147 23.8097C12.5857 24.8814 11.5891 29.292 14.3163 31.8678C17.1356 34.5394 20.4985 33.4433 21.9648 30.7117C25.1108 31.8965 28.478 29.9723 28.5658 26.5282C32.0727 26.8553 33.4169 24.1168 33.0903 21.2312L31.9787 21.1425C31.5002 23.8227 30.2148 24.978 27.2804 24.978C27.1531 27.553 24.3759 29.7878 21.2299 29.1963C20.3474 31.2545 17.7573 31.9261 15.9889 30.2045C14.2249 28.4821 14.8097 25.2433 17.9223 24.6587C17.795 21.5 20.898 19.5427 25.3294 19.7523C26.5885 18.2065 27.6061 17.5506 29.493 17.7315L29.5106 16.8329C27.7422 16.5971 25.7491 14.9373 25.6016 13.1531C21.8278 13.4506 19.2446 11.308 19.3728 7.94742C16.9477 6.82174 17.3841 4.35549 18.1691 3.41945C19.5212 1.80226 21.4116 1.93188 22.9394 3.23851C27.2514 1.60478 30.7231 4.97749 30.7231 8.66164C30.7231 8.66164 32.7382 8.62336 33.87 9.79167C35.367 11.3419 35.367 12.6903 35.7226 14.1935C36.0581 15.6132 36.7789 17.5001 38.5385 18.8607C41.6502 21.2643 46.4724 20.6127 46.9641 15.5428C51.1058 15.9073 53.8285 12.6859 52.4632 8.74602C55.3633 6.6956 54.7865 2.46949 52.0602 0.834898C51.4481 0.434439 50.7559 0.169752 50.031 0.0589602C49.3061 -0.0518318 48.5656 -0.00611124 47.8601 0.192988C47.1547 0.392088 46.501 0.739865 45.9439 1.21251C45.3867 1.68516 44.9392 2.27151 44.632 2.93142C40.3876 1.96493 36.9282 6.15799 38.9081 10.258ZM58.0562 34.8204C58.4294 33.3415 56.4617 33.1223 56.1904 34.4846C55.9024 35.9426 54.113 38.4297 52.4175 39.9877L53.0234 40.635C55.2492 38.9873 57.5777 36.7072 58.0562 34.8204ZM67.9394 10.3919C68.2629 10.3799 68.5691 10.2441 68.7936 10.0131C69.0182 9.78213 69.1437 9.47388 69.1437 9.15314C69.1437 8.83241 69.0182 8.52416 68.7936 8.29316C68.5691 8.06215 68.2629 7.92638 67.9394 7.91437C67.2484 7.91437 66.6934 8.47286 66.6934 9.15314C66.6934 9.83778 67.2484 10.3919 67.9394 10.3919ZM86.3499 11.522C86.3593 11.1386 86.5197 10.774 86.7967 10.5062C87.0737 10.2383 87.4454 10.0884 87.8325 10.0884C88.2195 10.0884 88.5913 10.2383 88.8683 10.5062C89.1453 10.774 89.3056 11.1386 89.315 11.522C89.3156 11.7152 89.2777 11.9067 89.2035 12.0855C89.1293 12.2643 89.0202 12.4268 88.8826 12.5637C88.7449 12.7007 88.5814 12.8094 88.4012 12.8837C88.2211 12.9579 88.028 12.9963 87.8329 12.9965C87.0163 12.9965 86.3499 12.3371 86.3499 11.522ZM84.0003 37.9495C74.3507 37.2153 64.7433 37.8155 64.7433 37.8155L65.4203 36.0635C74.6466 35.3997 84.1364 36.0635 84.1364 36.0635L84.0003 37.9495Z" fill="#111111"/>
<path fill-rule="evenodd" clip-rule="evenodd" d="M25.6877 44.6051C25.6877 44.6051 26.2347 45.3288 27.0872 46.2275C27.3761 46.6311 27.6931 46.9199 28.0952 47.2949C29.8645 49.0043 32.4669 50.2857 35.1511 50.7981C35.9141 50.9425 36.5928 51.0547 37.3479 51.0547C38.4929 51.0547 39.5474 50.4458 40.2217 49.8481L39.1707 48.6337C38.8318 48.7337 38.1276 48.7337 37.6614 48.7337C33.7691 48.7337 28.8301 46.2101 27.6931 43.2854C27.5781 43 27.4429 42.8409 27.5579 42.5712C27.6676 42.3024 27.8125 41.736 27.8924 41.215C28.1216 41.4751 28.5913 41.8657 29.1893 42.2476C30.6398 43.1679 33.3959 44.4406 33.9341 44.7817C35.0634 44.4616 36.1571 44.0294 37.1987 43.4916C38.0082 43.0757 39.1154 42.7017 40.3956 42.7017C43.2404 42.7017 46.5093 44.3058 49.5798 45.8056L51.6783 44.9904C48.952 43.0879 43.0253 40.4285 39.7265 40.4285C37.7843 40.4285 35.9562 41.8404 34.6559 41.8404C33.057 41.8404 28.478 39.6265 28.478 37.7822C28.478 36.3625 31.4414 35.5552 36.2065 34.975C35.3753 36.1897 34.5961 37.4386 33.8709 38.7183L35.0835 39.3864C42.5459 28.661 50.305 21.6973 56.8349 17.4581C59.2091 15.9157 59.7483 15.0136 60.5745 13.3286C62.5975 9.22859 64.5054 6.07336 67.8253 6.07336C69.3723 6.07336 70.6402 6.93894 71.5104 8.00634L73.91 8.72055L71.4796 10.3543L73.9653 11.3373C70.721 12.2403 66.2905 15.3703 64.4931 19.9618C61.0372 20.1427 59.3707 22.9195 58.2433 25.2466C57.4794 26.8142 56.2677 27.4397 54.4994 28.6288L40.3675 38.4042L42.3132 38.673L55.3678 29.9938C57.9465 28.2722 59.167 27.003 59.7869 25.7755C60.9951 23.3727 62.3016 21.5877 64.8628 21.5877C66.1219 21.5877 67.4653 22.1209 68.5426 23.1335L70.836 23.8729L68.3345 25.3892L70.433 26.6715C64.4378 28.5332 60.7273 32.7923 58.5734 40.9331L60.1592 41.2863C60.952 38.5939 61.7405 36.1198 63.1436 33.9345C66.6118 33.8971 70.1283 33.771 73.5746 33.771C82.7755 33.771 90.4152 34.1572 94.5367 35.363L93.0792 32.8506C88.6706 32.1025 82.2715 31.7206 73.5755 31.7206C70.6631 31.7206 67.7067 31.825 64.7732 31.8589C66.6689 29.872 69.3908 28.1956 73.5887 26.9064L70.6121 25.2805L73.9188 23.4571L69.4119 21.793C68.6234 21.0918 67.6435 20.4489 66.4107 20.1375C67.856 15.7391 72.7703 13.1685 77.4854 11.3956L74.1831 10.055L77.5108 8.24905L72.3849 6.62664C71.045 5.06425 69.7604 4.35352 67.784 4.35352C63.0268 4.35352 61.0258 8.44913 59.1433 12.0793C58.1467 13.9949 57.5233 14.8013 55.8357 15.894C52.1761 18.2671 47.5164 21.8965 43.0657 26.5471C40.7415 24.8847 35.9878 20.0183 34.7042 17.3642C34.1949 17.9896 33.6909 19.3519 33.6909 19.3519C34.1791 19.8591 39.7713 25.4675 41.8522 27.845C41.6951 28.0173 41.5396 28.1895 41.3825 28.3661C39.1646 28.8028 33.4073 29.3535 31.4475 29.089L30.3456 31.0264C31.8075 30.8837 37.5323 30.2147 39.9065 30.0764C39.1788 30.9523 38.4732 31.846 37.7904 32.7566C30.4343 33.5883 25.5156 35.0837 25.5156 37.7813C25.5156 38.2268 25.6973 38.7304 25.6973 39.2046C25.6973 40.3346 25.2688 40.7513 24.4593 41.255C23.9334 41.5873 23.8991 41.8143 24.1248 42.1249C25.3452 44.0788 21.5548 45.0487 24.1959 48.5441L26.4349 48.6781C26.434 48.6789 24.2503 47.4201 25.6877 44.6051ZM22.7858 5.79934L22.057 6.53877C23.1045 8.022 27.7431 12.1394 30.0954 13.6687L30.9602 12.6056C29.4175 10.8075 25.0327 6.93024 22.7858 5.79934ZM19.5845 26.5532L20.2711 27.2961C22.0394 26.4479 25.3628 24.0113 27.161 22.1844L26.6658 21.4572C24.5533 22.3314 21.2887 24.7255 19.5845 26.5532Z" fill="#111111"/>
<path fill-rule="evenodd" clip-rule="evenodd" d="M122.023 56.9082C122.023 56.6041 121.963 56.3029 121.846 56.0218C121.729 55.7407 121.557 55.4852 121.34 55.27C121.123 55.0548 120.865 54.884 120.582 54.7675C120.298 54.6509 119.994 54.5909 119.687 54.5908L116.229 54.589C115.921 54.5896 115.617 54.6502 115.333 54.7673C115.049 54.8845 114.792 55.0559 114.575 55.2717C114.358 55.4876 114.186 55.7437 114.069 56.0254C113.952 56.3071 113.892 56.6089 113.893 56.9135L113.895 92.7588C113.894 93.0632 113.954 93.3646 114.071 93.646C114.188 93.9273 114.36 94.183 114.577 94.3985C114.794 94.6139 115.052 94.7848 115.336 94.9014C115.619 95.018 115.923 95.0781 116.231 95.0781H119.689C119.996 95.0774 120.3 95.0168 120.584 94.8997C120.867 94.7826 121.125 94.6113 121.342 94.3956C121.558 94.1799 121.73 93.9241 121.847 93.6426C121.964 93.3612 122.024 93.0597 122.023 92.7554V56.9082ZM126.431 57.8617V59.5659C126.432 59.7338 126.466 59.9 126.531 60.0549C126.597 60.2099 126.692 60.3505 126.813 60.4688C126.933 60.5872 127.075 60.6809 127.232 60.7446C127.389 60.8084 127.557 60.8409 127.727 60.8403H151.593C152.68 60.8403 153.564 59.9704 153.564 58.8917V56.0053C153.564 54.9283 152.67 53.9514 151.588 54.0566C151.588 54.0566 128.519 56.2993 127.775 56.3828C126.915 56.4768 126.431 57.1562 126.431 57.8617ZM107.111 95.0798C101.174 95.0798 97.4371 90.6197 97.4371 85.6533L97.4319 71.3116H95.732C95.5168 71.312 95.3036 71.2703 95.1047 71.1889C94.9057 71.1075 94.725 70.988 94.5727 70.8373C94.4204 70.6866 94.2997 70.5076 94.2173 70.3106C94.1349 70.1136 94.0926 69.9025 94.0927 69.6892V67.2882C94.0927 66.3913 94.8303 65.671 95.7338 65.671L97.4319 65.6728L97.4284 56.8543C97.4278 56.5576 97.4863 56.2638 97.6005 55.9895C97.7147 55.7153 97.8824 55.4661 98.094 55.2562C98.3055 55.0462 98.5568 54.8797 98.8334 54.7661C99.11 54.6525 99.4065 54.5941 99.706 54.5942H103.079C103.685 54.5961 104.264 54.8357 104.691 55.2606C105.118 55.6855 105.358 56.2608 105.357 56.8604L105.359 65.6719H110.618C111.525 65.6719 112.263 66.3939 112.263 67.2908V69.6918C112.263 69.9048 112.22 70.1157 112.138 70.3124C112.055 70.5092 111.934 70.6878 111.782 70.8382C111.63 70.9886 111.449 71.1077 111.25 71.1888C111.051 71.2699 110.838 71.3113 110.623 71.3108H105.359L105.362 84.5772C105.362 87.1817 106.955 88.959 109.804 88.959L110.283 88.9555C111.265 88.9555 112.064 89.7402 112.064 90.7136V93.3199C112.064 93.5513 112.018 93.7804 111.929 93.9941C111.839 94.2078 111.708 94.4019 111.543 94.5652C111.378 94.7286 111.181 94.858 110.965 94.946C110.749 95.034 110.518 95.0789 110.284 95.0781H107.111V95.0798ZM66.4611 79.9204C66.4611 72.2746 61.8927 64.6393 51.5117 64.6393C41.914 64.6393 36.5308 72.0815 36.5308 79.9222C36.5308 88.2778 42.2968 95.6366 51.5741 95.6366C57.924 95.6366 64.1835 92.3213 65.3662 86.8764C65.526 86.1422 65.0264 85.1791 63.9815 85.1757H59.4447C58.6211 85.1757 57.9477 85.5663 57.542 86.1561C56.2443 88.0421 54.3416 89.046 51.5293 89.046C47.5553 89.046 44.8001 85.9438 44.5928 82.5033H63.8893C65.6665 82.5033 66.4611 81.5481 66.4611 79.9204ZM44.6525 76.653C44.9625 73.2733 47.968 70.7758 51.5117 70.7758C55.0546 70.7758 58.1128 73.2733 58.4227 76.653H44.6525ZM154.39 79.9204C154.39 72.2746 149.821 64.6393 139.44 64.6393C129.843 64.6393 124.459 72.0815 124.459 79.9222C124.459 88.2778 130.226 95.6366 139.503 95.6366C145.853 95.6366 152.112 92.3213 153.296 86.8764C153.455 86.1422 152.956 85.1791 151.912 85.1757H147.374C146.551 85.1757 145.877 85.5663 145.471 86.1561C144.174 88.0421 142.27 89.046 139.458 89.046C135.485 89.046 132.73 85.9438 132.521 82.5033H151.82C153.595 82.5033 154.39 81.5481 154.39 79.9204ZM132.581 76.653C132.89 73.2733 135.896 70.7758 139.44 70.7758C142.984 70.7758 146.042 73.2733 146.352 76.653H132.581Z" fill="#111111"/>
<path fill-rule="evenodd" clip-rule="evenodd" d="M90.942 54.9932H28.4376C28.1 54.9932 27.7657 55.0592 27.4538 55.1873C27.1419 55.3155 26.8586 55.5033 26.6201 55.74C26.3815 55.9768 26.1924 56.2578 26.0636 56.567C25.9348 56.8762 25.8688 57.2076 25.8694 57.5421L26.0845 81.8644C26.0845 81.8644 12.6155 57.7613 11.9131 56.5313C11.2537 55.3743 9.83567 54.3086 7.87327 54.3086H2.73328C2.39529 54.3086 2.06061 54.3746 1.74837 54.5028C1.43613 54.631 1.15244 54.8189 0.91353 55.0558C0.674616 55.2926 0.485154 55.5738 0.35597 55.8833C0.226787 56.1927 0.160414 56.5243 0.160645 56.8592L0.163279 92.528C0.163048 92.8627 0.229363 93.1942 0.358437 93.5035C0.487511 93.8129 0.676816 94.094 0.915543 94.3308C1.15427 94.5677 1.43775 94.7556 1.74978 94.8839C2.06182 95.0122 2.39631 95.0784 2.73415 95.0786H6.03116C6.71401 95.077 7.36826 94.8068 7.85004 94.3273C8.33182 93.8479 8.60168 93.1985 8.60028 92.5219L8.39306 67.5184C8.39306 67.5184 21.992 91.8625 22.5741 92.8212C23.3582 94.1173 24.6858 95.0795 26.6104 95.0795H31.3325C31.6703 95.0793 32.0047 95.0131 32.3167 94.8848C32.6287 94.7565 32.9121 94.5685 33.1508 94.3317C33.3895 94.0948 33.5787 93.8137 33.7077 93.5043C33.8366 93.195 33.9028 92.8635 33.9025 92.5289L33.9007 61.0384L90.9455 61.0401C91.1762 61.0408 91.4048 60.9964 91.6181 60.9095C91.8314 60.8225 92.0254 60.6948 92.1888 60.5335C92.3522 60.3722 92.482 60.1806 92.5706 59.9695C92.6592 59.7585 92.7049 59.5323 92.7051 59.3037V56.7313C92.7037 56.2693 92.5172 55.8267 92.1866 55.5008C91.856 55.1749 91.4084 54.9923 90.942 54.9932Z" fill="#111111"/>
<path fill-rule="evenodd" clip-rule="evenodd" d="M80.826 70.4781C83.5444 70.4781 85.5761 71.455 86.3084 73.1418C86.6596 73.9526 87.341 74.1083 88.2769 74.1083H92.0138C92.6311 74.1083 93.3414 73.582 93.3414 72.7816C93.3414 68.4781 88.161 64.6348 80.8207 64.6348C73.2319 64.6348 68.2473 68.2163 68.2473 73.9239C68.2473 78.2891 71.7296 80.8868 76.01 81.9959C77.961 82.5005 81.2922 83.3165 82.9139 83.7392C84.663 84.1925 86.2267 84.7231 86.2267 86.2064C86.2267 88.5491 83.7349 89.3459 81.013 89.3459C78.4342 89.3459 75.866 88.2055 75.1293 86.383C74.7035 85.3277 73.9563 85.1746 72.8236 85.1746H69.0226C68.3597 85.1746 67.5967 85.7383 67.5967 86.5952V87.0815C67.5967 91.2476 73.238 95.6111 81.02 95.6111C86.5384 95.6111 94.2265 93.338 94.2265 86.0063C94.2265 81.7602 91.3588 78.8207 86.693 77.6454C84.8684 77.1869 80.4818 76.0821 79.5274 75.8377C77.8266 75.401 76.2391 74.8521 76.2391 73.408C76.24 71.2201 78.2806 70.4781 80.826 70.4781ZM157.071 93.572H156.223V89.6469H157.704C158.726 89.6469 159.33 89.9357 159.33 90.8326C159.33 91.5547 158.901 91.8165 158.376 91.8557L159.388 93.572H158.384L157.47 91.9226H157.071V93.572ZM157.82 91.258C158.201 91.258 158.424 91.1797 158.424 90.7448C158.424 90.3403 157.985 90.3116 157.666 90.3116H157.071V91.258H157.82ZM157.683 95.2588C155.727 95.2588 153.984 93.9183 153.984 91.613C153.984 89.3094 155.727 87.9688 157.683 87.9688C159.631 87.9688 161.375 89.3094 161.375 91.613C161.375 93.9183 159.631 95.2588 157.683 95.2588ZM157.683 88.8161C156.223 88.8161 155.045 89.9357 155.045 91.613C155.045 93.2919 156.223 94.422 157.683 94.4115V94.4219C159.106 94.4219 160.311 93.2919 160.311 91.613C160.311 89.9357 159.106 88.8161 157.683 88.8161Z" fill="#111111"/>
</g>
</svg>
