<svg width="63" height="63" viewBox="0 0 63 63" fill="none" xmlns="http://www.w3.org/2000/svg">
<path d="M13.125 62.3438C8.7675 62.3438 4.6725 60.0338 2.4675 56.28C1.28625 54.39 0.65625 52.1587 0.65625 49.875C0.65625 42.9975 6.2475 37.4062 13.125 37.4062C20.0025 37.4062 25.5938 42.9975 25.5938 49.875C25.5938 52.1587 24.9638 54.39 23.7825 56.3063C21.5775 60.0338 17.4825 62.3438 13.125 62.3438ZM13.125 41.3438C8.42625 41.3438 4.59375 45.1762 4.59375 49.875C4.59375 51.4237 5.01375 52.9462 5.8275 54.2587C7.37625 56.8837 10.1062 58.4062 13.125 58.4062C16.1438 58.4062 18.8737 56.8575 20.4225 54.285C21.2362 52.9462 21.6562 51.45 21.6562 49.875C21.6562 45.1762 17.8237 41.3438 13.125 41.3438Z" fill="#0E518F"/>
<path d="M11.6283 54.4436C11.1296 54.4436 10.6308 54.2599 10.2371 53.8661L7.63832 51.2674C6.87707 50.5062 6.87707 49.246 7.63832 48.4848C8.39957 47.7235 9.65957 47.7235 10.4208 48.4848L11.6808 49.7449L15.8808 45.8598C16.6683 45.1248 17.9283 45.1774 18.6633 45.9649C19.3983 46.7524 19.3458 48.0124 18.5583 48.7474L12.9671 53.9185C12.5733 54.2598 12.1008 54.4436 11.6283 54.4436Z" fill="#0E518F"/>
<path d="M16.2491 20.5006C15.6191 20.5006 15.0416 20.2118 14.6479 19.6868C14.2016 19.0831 14.1491 18.2955 14.4904 17.6392C14.9366 16.7467 15.5666 15.8806 16.3804 15.0931L24.9116 6.53555C29.2691 2.2043 36.3566 2.2043 40.7141 6.53555L45.3079 11.2081C47.2504 13.1244 48.4316 15.6969 48.5629 18.4269C48.5891 19.0306 48.3529 19.6081 47.9066 20.0018C47.4604 20.3956 46.8566 20.5793 46.2791 20.4743C45.7541 20.3955 45.2029 20.3693 44.6254 20.3693H18.3754C17.7454 20.3693 17.1416 20.4218 16.5379 20.5006C16.4591 20.5006 16.3541 20.5006 16.2491 20.5006ZM20.6329 16.4056H44.1529C43.8116 15.5131 43.2604 14.6993 42.5254 13.9643L37.9054 9.29176C35.0966 6.50926 30.5029 6.50926 27.6679 9.29176L20.6329 16.4056Z" fill="#0E518F"/>
<path d="M44.6267 59.7188H20.0305C19.1905 59.7188 18.4555 59.1938 18.1667 58.4325C17.878 57.645 18.1142 56.7787 18.7442 56.2537C19.3742 55.7287 19.9517 55.0463 20.3717 54.3113C21.2117 52.9725 21.6317 51.45 21.6317 49.9013C21.6317 45.2025 17.7992 41.37 13.1005 41.37C10.6592 41.37 8.32297 42.42 6.69547 44.2837C6.14422 44.8875 5.27797 45.1238 4.51672 44.835C3.75547 44.5463 3.23047 43.8113 3.23047 42.9975V31.5C3.23047 23.415 8.21797 17.5613 15.9617 16.59C16.6705 16.485 17.4842 16.4062 18.3242 16.4062H44.5742C45.2042 16.4062 46.018 16.4325 46.858 16.5637C54.6017 17.4562 59.668 23.3363 59.668 31.5V44.625C59.7205 53.655 53.6567 59.7188 44.6267 59.7188ZM24.0992 55.7812H44.6267C51.3992 55.7812 55.783 51.3975 55.783 44.625V31.5C55.783 25.3575 52.1867 21.1312 46.3592 20.4487C45.7292 20.3437 45.178 20.3438 44.6267 20.3438H18.3767C17.7467 20.3438 17.143 20.3962 16.5392 20.475C10.7642 21.21 7.22047 25.41 7.22047 31.5V38.9025C9.00547 37.9313 11.053 37.4062 13.1267 37.4062C20.0042 37.4062 25.5955 42.9975 25.5955 49.875C25.5955 51.9487 25.0705 53.9963 24.0992 55.7812Z" fill="#0E518F"/>
<path d="M57.75 45.2812H49.875C45.885 45.2812 42.6562 42.0525 42.6562 38.0625C42.6562 34.0725 45.885 30.8438 49.875 30.8438H57.75C58.8263 30.8438 59.7188 31.7362 59.7188 32.8125C59.7188 33.8888 58.8263 34.7812 57.75 34.7812H49.875C48.0637 34.7812 46.5938 36.2512 46.5938 38.0625C46.5938 39.8737 48.0637 41.3438 49.875 41.3438H57.75C58.8263 41.3438 59.7188 42.2362 59.7188 43.3125C59.7188 44.3888 58.8263 45.2812 57.75 45.2812Z" fill="#0E518F"/>
</svg>
