<svg width="63" height="63" viewBox="0 0 63 63" fill="none" xmlns="http://www.w3.org/2000/svg">
<path d="M31.5 43.9688C30.45 43.9688 29.4 43.89 28.4025 43.7062C22.8375 42.8925 17.7713 39.69 14.5688 34.9387C12.3375 31.5787 11.1562 27.6675 11.1562 23.625C11.1562 12.4163 20.2913 3.28125 31.5 3.28125C42.7087 3.28125 51.8438 12.4163 51.8438 23.625C51.8438 27.6675 50.6625 31.5787 48.4313 34.9387C45.2025 39.7162 40.1362 42.8925 34.5187 43.7325C33.6 43.89 32.55 43.9688 31.5 43.9688ZM31.5 7.21875C22.4437 7.21875 15.0938 14.5687 15.0938 23.625C15.0938 26.9062 16.0387 30.0563 17.8238 32.7338C20.4225 36.5663 24.4913 39.1388 29.0063 39.795C30.6863 40.0838 32.34 40.0838 33.8888 39.795C38.4825 39.1388 42.5513 36.54 45.15 32.7075C46.935 30.03 47.88 26.88 47.88 23.5987C47.9062 14.5687 40.5562 7.21875 31.5 7.21875Z" fill="#0E518F"/>
<path d="M16.9822 59.2994C16.6147 59.2994 16.2735 59.2469 15.906 59.1682C14.1997 58.7744 12.8872 57.4619 12.4935 55.7556L11.5747 51.8969C11.5222 51.6606 11.3385 51.4769 11.076 51.3981L6.74473 50.3744C5.11723 49.9807 3.83098 48.7732 3.38473 47.1719C2.93848 45.5707 3.38473 43.8382 4.56598 42.6569L14.8035 32.4194C15.2235 31.9994 15.801 31.7894 16.3785 31.8419C16.956 31.8944 17.481 32.2094 17.8222 32.7081C20.421 36.5406 24.4897 39.1394 29.031 39.7957C30.711 40.0844 32.3647 40.0844 33.9135 39.7957C38.5072 39.1394 42.576 36.5406 45.1747 32.7081C45.4897 32.2094 46.041 31.8944 46.6185 31.8419C47.196 31.7894 47.7735 31.9994 48.1935 32.4194L58.431 42.6569C59.6122 43.8382 60.0585 45.5707 59.6122 47.1719C59.166 48.7732 57.8535 50.0069 56.2522 50.3744L51.921 51.3981C51.6847 51.4506 51.501 51.6344 51.4222 51.8969L50.5035 55.7556C50.1097 57.4619 48.7972 58.7744 47.091 59.1682C45.3847 59.5882 43.626 58.9844 42.5235 57.6456L31.4985 44.9669L20.4735 57.6719C19.581 58.7219 18.321 59.2994 16.9822 59.2994ZM15.9847 36.8294L7.34848 45.4657C7.11223 45.7019 7.13848 45.9644 7.19098 46.1219C7.21723 46.2532 7.34848 46.5156 7.66348 46.5681L11.9947 47.5919C13.701 47.9857 15.0135 49.2981 15.4072 51.0044L16.326 54.8631C16.4047 55.2044 16.6672 55.3094 16.8247 55.3619C16.9822 55.3881 17.2447 55.4144 17.481 55.1519L27.5347 43.5757C23.0722 42.7094 18.9772 40.3206 15.9847 36.8294ZM35.4622 43.5494L45.516 55.0994C45.7522 55.3881 46.041 55.3881 46.1985 55.3356C46.356 55.3094 46.5922 55.1782 46.6972 54.8369L47.616 50.9782C48.0097 49.2719 49.3222 47.9594 51.0285 47.5656L55.3597 46.5419C55.6747 46.4632 55.806 46.2269 55.8322 46.0956C55.8847 45.9644 55.911 45.6756 55.6747 45.4394L47.0385 36.8031C44.0197 40.2944 39.951 42.6831 35.4622 43.5494Z" fill="#0E518F"/>
<path d="M36.4617 33.8372C35.7792 33.8372 34.9655 33.6534 33.9942 33.0759L31.5005 31.5796L29.0067 33.0496C26.723 34.4146 25.2267 33.6271 24.6755 33.2334C24.1242 32.8396 22.943 31.6584 23.5467 29.0597L24.1767 26.3559L22.0767 24.4134C20.9217 23.2584 20.5017 21.8672 20.8955 20.6072C21.2892 19.3472 22.4442 18.4546 24.0717 18.1921L26.8805 17.7196L28.2192 14.7796C28.9805 13.2834 30.1617 12.4434 31.5005 12.4434C32.8392 12.4434 34.0467 13.3097 34.7817 14.8059L36.3305 17.9034L38.9292 18.2184C40.5305 18.4809 41.6855 19.3733 42.1055 20.6333C42.4992 21.8933 42.0792 23.2846 40.9242 24.4396L38.7455 26.6184L39.428 29.0597C40.0317 31.6584 38.8505 32.8396 38.2992 33.2334C38.0105 33.4696 37.3805 33.8372 36.4617 33.8372ZM25.2267 22.0247L27.038 23.8358C27.878 24.6758 28.298 26.0934 28.0355 27.2484L27.5367 29.3484L29.6367 28.1146C30.7655 27.4584 32.288 27.4584 33.3905 28.1146L35.4905 29.3484L35.018 27.2484C34.7555 26.0671 35.1492 24.6758 35.9892 23.8358L37.8005 22.0247L35.5167 21.6309C34.4142 21.4471 33.3117 20.6334 32.813 19.6359L31.5005 17.0634L30.188 19.6884C29.7155 20.6596 28.613 21.4997 27.5105 21.6834L25.2267 22.0247Z" fill="#0E518F"/>
</svg>
