<svg width="63" height="63" viewBox="0 0 63 63" fill="none" xmlns="http://www.w3.org/2000/svg">
<path d="M24.8856 54.312C23.5731 54.312 22.6544 53.8657 22.1031 53.4457C21.0531 52.6845 19.4256 50.7157 20.4494 46.3057L21.9456 39.8482C22.0768 39.2969 21.7881 38.2994 21.3943 37.8794L16.1706 32.6557C13.4144 29.8995 13.6506 27.5107 14.0181 26.3295C14.3856 25.1482 15.5931 23.0744 19.4256 22.4182L26.1194 21.3157C26.6181 21.2369 27.4319 20.6332 27.6419 20.187L31.3431 12.7844C33.1281 9.21445 35.4906 8.68945 36.7506 8.68945C38.0106 8.68945 40.3731 9.21445 42.1581 12.7844L45.8594 20.187C46.0956 20.6332 46.8831 21.2369 47.3818 21.3157L54.0756 22.4182C57.9081 23.0482 59.1156 25.1482 59.4831 26.3295C59.8506 27.5107 60.0868 29.8995 57.3306 32.6557L52.1069 37.8794C51.7131 38.2732 51.4244 39.2969 51.5556 39.8482L53.0518 46.3057C54.0756 50.742 52.4481 52.6845 51.3981 53.4457C50.3481 54.207 48.0119 55.1782 44.0744 52.842L37.8006 49.1145C37.2756 48.7995 36.1731 48.7995 35.6481 49.1145L29.3744 52.842C27.5631 53.9445 26.0406 54.312 24.8856 54.312ZM36.7506 12.627C36.3306 12.627 35.5694 13.1257 34.8606 14.5432L31.1593 21.9457C30.3718 23.547 28.5081 24.912 26.7494 25.2007L20.0556 26.3032C18.5594 26.5657 17.8769 27.117 17.7456 27.537C17.6144 27.957 17.8506 28.797 18.9268 29.8732L24.1506 35.0969C25.4894 36.4357 26.1981 38.8769 25.7781 40.7144L24.2819 47.172C23.8356 49.0357 24.1243 50.0332 24.4131 50.2694C24.7018 50.4794 25.7518 50.4532 27.3793 49.4557L33.6793 45.7282C35.4381 44.6782 38.0894 44.6782 39.8219 45.7282L46.0956 49.4557C47.7494 50.4269 48.7994 50.4794 49.0881 50.2694C49.3769 50.0594 49.6656 49.062 49.2194 47.172L47.7231 40.7144C47.3031 38.8507 47.9856 36.4357 49.3506 35.0969L54.5744 29.8732C55.6506 28.797 55.8868 27.9307 55.7556 27.537C55.6243 27.1432 54.9418 26.5657 53.4456 26.3032L46.7519 25.2007C44.9931 24.912 43.1294 23.547 42.3419 21.9457L38.6406 14.5432C37.9319 13.1257 37.1706 12.627 36.7506 12.627Z" fill="#0E518F"/>
<path d="M21 15.0938H5.25C4.17375 15.0938 3.28125 14.2013 3.28125 13.125C3.28125 12.0487 4.17375 11.1562 5.25 11.1562H21C22.0763 11.1562 22.9688 12.0487 22.9688 13.125C22.9688 14.2013 22.0763 15.0938 21 15.0938Z" fill="#0E518F"/>
<path d="M13.125 51.8438H5.25C4.17375 51.8438 3.28125 50.9513 3.28125 49.875C3.28125 48.7987 4.17375 47.9062 5.25 47.9062H13.125C14.2013 47.9062 15.0938 48.7987 15.0938 49.875C15.0938 50.9513 14.2013 51.8438 13.125 51.8438Z" fill="#0E518F"/>
<path d="M7.875 33.4688H5.25C4.17375 33.4688 3.28125 32.5763 3.28125 31.5C3.28125 30.4237 4.17375 29.5312 5.25 29.5312H7.875C8.95125 29.5312 9.84375 30.4237 9.84375 31.5C9.84375 32.5763 8.95125 33.4688 7.875 33.4688Z" fill="#0E518F"/>
</svg>
