<svg width="203" height="66" viewBox="0 0 203 66" fill="none" xmlns="http://www.w3.org/2000/svg">
<g opacity="0.5">
<path d="M88.2306 64.3083H71.6991L82.031 1.39756H98.5642L88.2306 64.3083ZM57.7918 1.39756L42.0314 44.668L40.1664 35.3502L40.1681 35.3536L34.6055 7.06195C34.6055 7.06195 33.9329 1.39756 26.7636 1.39756H0.708563L0.402832 2.46279C0.402832 2.46279 8.3705 4.10522 17.6953 9.6535L32.0578 64.31H49.2823L75.5835 1.39756H57.7918ZM187.82 64.3083H203L189.765 1.39588H176.476C170.339 1.39588 168.845 6.08423 168.845 6.08423L144.189 64.3083H161.422L164.869 54.9635H185.884L187.82 64.3083ZM169.629 42.0546L178.316 18.5119L183.202 42.0546H169.629ZM145.482 16.5262L147.841 3.01644C147.841 3.01644 140.561 0.273438 132.972 0.273438C124.769 0.273438 105.287 3.82588 105.287 21.1001C105.287 37.3528 128.152 37.5547 128.152 46.0917C128.152 54.6287 107.643 53.099 100.874 47.7156L98.4165 61.8413C98.4165 61.8413 105.798 65.3937 117.076 65.3937C128.358 65.3937 145.377 59.6065 145.377 43.8552C145.377 27.4982 122.306 25.9752 122.306 18.8636C122.308 11.7503 138.408 12.6641 145.482 16.5262Z" fill="#111111"/>
<path d="M40.1676 35.3525L34.605 7.06087C34.605 7.06087 33.9324 1.39648 26.7631 1.39648H0.708074L0.402344 2.46171C0.402344 2.46171 12.9254 5.03306 24.9372 14.6672C36.4224 23.8756 40.1676 35.3525 40.1676 35.3525Z" fill="#111111"/>
</g>
</svg>
