<svg width="102" height="102" viewBox="0 0 102 102" fill="none" xmlns="http://www.w3.org/2000/svg">
<circle cx="51" cy="51" r="51" fill="#0E518F" fill-opacity="0.12"/>
<path d="M75.6388 55.5967V60.4035C75.6388 61.6868 74.6122 62.7367 73.3055 62.7834H68.7322C66.2122 62.7834 63.9022 60.9401 63.6922 58.4201C63.5522 56.9501 64.1122 55.5734 65.0922 54.6167C65.9555 53.7301 67.1455 53.2168 68.4522 53.2168H73.3055C74.6122 53.2635 75.6388 54.3134 75.6388 55.5967Z" stroke="#0E518F" stroke-width="2.5" stroke-linecap="round" stroke-linejoin="round"/>
<path d="M39.333 51H55.6663" stroke="#0E518F" stroke-width="2.5" stroke-linecap="round" stroke-linejoin="round"/>
<path d="M43.9997 67.3333C43.9997 69.0833 43.5097 70.74 42.6463 72.14C42.1563 72.98 41.5264 73.7267 40.803 74.3333C39.1697 75.8033 37.023 76.6667 34.6663 76.6667C31.2597 76.6667 28.2963 74.8467 26.6863 72.14C25.823 70.74 25.333 69.0833 25.333 67.3333C25.333 64.3933 26.6863 61.7567 28.833 60.0533C30.443 58.77 32.473 58 34.6663 58C39.823 58 43.9997 62.1767 43.9997 67.3333Z" stroke="#0E518F" stroke-width="2.5" stroke-miterlimit="10" stroke-linecap="round" stroke-linejoin="round"/>
<path d="M31.0264 67.3335L33.3363 69.6435L38.3064 65.0469" stroke="#0E518F" stroke-width="2.5" stroke-linecap="round" stroke-linejoin="round"/>
<path d="M55.6663 74.334H40.803C41.5264 73.7273 42.1563 72.9806 42.6463 72.1406C43.5097 70.7406 43.9997 69.084 43.9997 67.334C43.9997 62.1773 39.823 58.0007 34.6663 58.0007C32.473 58.0007 30.443 58.7707 28.833 60.054V49.8573C28.833 45.0273 32.7763 41.084 37.6063 41.084H64.393C69.223 41.084 73.1663 45.0273 73.1663 49.8573V53.2173H68.453C67.1463 53.2173 65.9563 53.7306 65.093 54.6173C64.113 55.574 63.553 56.9506 63.693 58.4206C63.903 60.9406 66.213 62.784 68.733 62.784H73.1663V65.5606C73.1663 70.3906 69.223 74.334 64.393 74.334" stroke="#0E518F" stroke-width="2.5" stroke-linecap="round" stroke-linejoin="round"/>
<path d="M51.6523 28.0637C54.5457 26.9671 57.649 29.1138 57.649 32.2171V41.0838" stroke="#0E518F" stroke-width="2.5" stroke-linecap="round" stroke-linejoin="round"/>
<path d="M28.833 51.9558V41.2926C28.833 38.5159 30.5363 36.0425 33.1263 35.0625L42.3897 31.5625" stroke="#0E518F" stroke-width="2.5" stroke-linecap="round" stroke-linejoin="round"/>
</svg>
