<svg width="102" height="102" viewBox="0 0 102 102" fill="none" xmlns="http://www.w3.org/2000/svg">
<circle cx="51" cy="51" r="51" fill="#0E518F" fill-opacity="0.12"/>
<path d="M60.917 31.026C64.8137 34.0127 67.3337 38.7027 67.3337 43.9994C67.3337 47.3827 66.3303 50.4861 64.6037 53.0761C62.0837 56.8094 58.0937 59.446 53.4503 60.1227C52.657 60.2627 51.8403 60.3327 51.0003 60.3327C50.1603 60.3327 49.3437 60.2627 48.5503 60.1227C43.907 59.446 39.917 56.8094 37.397 53.0761C35.6703 50.4861 34.667 47.3827 34.667 43.9994C34.667 34.9693 41.9703 27.666 51.0003 27.666" stroke="#0E518F" stroke-width="2.5" stroke-linecap="round" stroke-linejoin="round"/>
<path d="M72.5829 66.0963L68.7329 67.0063C67.8695 67.2163 67.1929 67.8696 67.0062 68.733L66.1895 72.163C65.7462 74.0296 63.3662 74.5897 62.1295 73.1197L50.9995 60.333L39.8695 73.1429C38.6329 74.6129 36.2529 74.0529 35.8095 72.1863L34.9929 68.7563C34.7829 67.8929 34.1062 67.2163 33.2662 67.0296L29.4162 66.1197C27.6429 65.6997 27.0129 63.4829 28.2962 62.1996L37.3962 53.0996C39.9162 56.8329 43.9062 59.4697 48.5495 60.1463C49.3429 60.2863 50.1595 60.3563 50.9995 60.3563C51.8395 60.3563 52.6562 60.2863 53.4495 60.1463C58.0929 59.4697 62.0829 56.8329 64.6029 53.0996L73.7029 62.1996C74.9862 63.4596 74.3562 65.6763 72.5829 66.0963Z" stroke="#0E518F" stroke-width="2.5" stroke-linecap="round" stroke-linejoin="round"/>
<path d="M52.3526 36.954L53.7293 39.7073C53.916 40.0806 54.406 40.454 54.8493 40.524L57.346 40.944C58.9326 41.2006 59.306 42.3673 58.1626 43.5106L56.226 45.4473C55.8993 45.7739 55.7126 46.404 55.8293 46.8707L56.3893 49.274C56.8326 51.164 55.8293 51.9106 54.1493 50.9073L51.816 49.5306C51.396 49.2739 50.696 49.2739 50.276 49.5306L47.9426 50.9073C46.2626 51.8873 45.2593 51.164 45.7026 49.274L46.2626 46.8707C46.356 46.4273 46.1926 45.7739 45.866 45.4473L43.9293 43.5106C42.786 42.3673 43.1593 41.224 44.746 40.944L47.2426 40.524C47.6626 40.454 48.1526 40.0806 48.3393 39.7073L49.716 36.954C50.3926 35.4607 51.606 35.4607 52.3526 36.954Z" stroke="#0E518F" stroke-width="2.5" stroke-linecap="round" stroke-linejoin="round"/>
</svg>
