<svg width="102" height="102" viewBox="0 0 102 102" fill="none" xmlns="http://www.w3.org/2000/svg">
<circle cx="51" cy="51" r="51" fill="#0E518F" fill-opacity="0.12"/>
<path d="M49.3201 27.666H45.0501C40.8501 27.666 39.9168 29.766 39.3801 32.356L37.4668 41.5027H64.5335L62.6201 32.356C62.0835 29.7894 61.1501 27.666 56.9501 27.666" stroke="#0E518F" stroke-width="2.5" stroke-linecap="round" stroke-linejoin="round"/>
<path d="M67.7066 54.3352L67.8933 56.4119C68.08 58.3952 66.4933 60.0986 64.4633 60.0986H61.29C59.47 60.0986 59.2133 59.3286 58.8866 58.3486L58.5366 57.3452C58.07 55.9685 57.7666 55.0352 55.3166 55.0352H46.66C44.2333 55.0352 43.86 56.0852 43.44 57.3452L43.09 58.3486C42.7633 59.3053 42.5066 60.0986 40.6866 60.0986H37.5133C35.4833 60.0986 33.8966 58.3952 34.0833 56.4119L35.04 46.0986C35.2733 43.5553 35.7633 41.4785 40.1966 41.4785H61.78C66.2133 41.4785 66.7033 43.5553 66.9366 46.0986" stroke="#0E518F" stroke-width="2.5" stroke-linecap="round" stroke-linejoin="round"/>
<path d="M37.467 36.416H35.7637" stroke="#0E518F" stroke-width="2.5" stroke-linecap="round" stroke-linejoin="round"/>
<path d="M66.2365 36.416H64.5332" stroke="#0E518F" stroke-width="2.5" stroke-linecap="round" stroke-linejoin="round"/>
<path d="M40.8496 48.2695H45.913" stroke="#0E518F" stroke-width="2.5" stroke-linecap="round" stroke-linejoin="round"/>
<path d="M56.0879 48.2695H61.1513" stroke="#0E518F" stroke-width="2.5" stroke-linecap="round" stroke-linejoin="round"/>
<path d="M51 62.666V64.9993" stroke="#0E518F" stroke-width="2.5" stroke-linecap="round" stroke-linejoin="round"/>
<path d="M51 72V74.3333" stroke="#0E518F" stroke-width="2.5" stroke-linecap="round" stroke-linejoin="round"/>
<path d="M30.0003 65L27.667 74.3333" stroke="#0E518F" stroke-width="2.5" stroke-linecap="round" stroke-linejoin="round"/>
<path d="M72 65L74.3333 74.3333" stroke="#0E518F" stroke-width="2.5" stroke-linecap="round" stroke-linejoin="round"/>
</svg>
